<svg width="156" height="59" viewBox="0 0 156 59" fill="none" xmlns="http://www.w3.org/2000/svg">
<g filter="url(#filter0_d_211_614)">
<mask id="path-1-outside-1_211_614" maskUnits="userSpaceOnUse" x="6" y="5" width="142" height="45" fill="black">
<rect fill="white" x="6" y="5" width="142" height="45"/>
<path d="M8 30.2432C8 16.8541 18.8541 6 32.2432 6H121.572C134.961 6 145.815 16.8541 145.815 30.2432C145.815 38.3932 139.208 45 131.058 45H22.7568C14.6068 45 8 38.3932 8 30.2432Z"/>
</mask>
<path d="M6 30.2432C6 16.3018 17.3018 5 31.2432 5H122.572C136.513 5 147.815 16.3018 147.815 30.2432H143.815C143.815 17.4064 133.856 7 121.572 7H32.2432C19.9586 7 10 17.4064 10 30.2432H6ZM147.815 33.2432C147.815 42.4977 140.313 50 131.058 50H22.7568C13.5023 50 6 42.4977 6 33.2432L10 30.2432C10 35.6318 15.7114 40 22.7568 40H131.058C138.104 40 143.815 35.6318 143.815 30.2432L147.815 33.2432ZM22.7568 50C13.5023 50 6 42.4977 6 33.2432V30.2432C6 16.3018 17.3018 5 31.2432 5L32.2432 7C19.9586 7 10 17.4064 10 30.2432C10 35.6318 15.7114 40 22.7568 40L22.7568 50ZM122.572 5C136.513 5 147.815 16.3018 147.815 30.2432V33.2432C147.815 42.4977 140.313 50 131.058 50V40C138.104 40 143.815 35.6318 143.815 30.2432C143.815 17.4064 133.856 7 121.572 7L122.572 5Z" fill="url(#paint0_linear_211_614)" mask="url(#path-1-outside-1_211_614)"/>
</g>
<path d="M8 30.2432C8 16.8541 18.8541 6 32.2432 6H121.572C134.961 6 145.815 16.8541 145.815 30.2432C145.815 38.3932 139.208 45 131.058 45H22.7568C14.6068 45 8 38.3932 8 30.2432Z" fill="url(#paint1_linear_211_614)"/>
<mask id="path-4-inside-2_211_614" fill="white">
<path d="M8 30.2432C8 16.8541 18.8541 6 32.2432 6H121.572C134.961 6 145.815 16.8541 145.815 30.2432C145.815 38.3932 139.208 45 131.058 45H22.7568C14.6068 45 8 38.3932 8 30.2432Z"/>
</mask>
<path d="M8 6H145.815H8ZM145.815 30.2432C145.815 41.1546 136.969 50 126.058 50H27.7568C16.8454 50 8 41.1546 8 30.2432C8 35.6318 14.6068 40 22.7568 40H131.058C139.208 40 145.815 35.6318 145.815 30.2432ZM8 45V6V45ZM145.815 6V45V6Z" fill="#0779E4" fill-opacity="0.41" mask="url(#path-4-inside-2_211_614)"/>
<mask id="path-6-inside-3_211_614" fill="white">
<path d="M8 30.2432C8 16.8541 18.8541 6 32.2432 6H121.572C134.961 6 145.815 16.8541 145.815 30.2432C145.815 38.3932 139.208 45 131.058 45H22.7568C14.6068 45 8 38.3932 8 30.2432Z"/>
</mask>
<path d="M8 30.2432C8 14.0926 21.0926 1 37.2432 1H116.572C132.722 1 145.815 14.0926 145.815 30.2432C145.815 19.6155 134.961 11 121.572 11H32.2432C18.8541 11 8 19.6155 8 30.2432ZM145.815 45H8H145.815ZM8 45V6V45ZM145.815 6V45V6Z" fill="#BDF1FF" fill-opacity="0.41" mask="url(#path-6-inside-3_211_614)"/>
<mask id="path-8-inside-4_211_614" fill="white">
<path d="M12.8861 29.5374C12.8861 18.5552 21.7889 9.65247 32.771 9.65247H120.905C131.887 9.65247 140.79 18.5552 140.79 29.5374C140.79 36.2221 135.371 41.6412 128.686 41.6412H24.9899C18.3052 41.6412 12.8861 36.2221 12.8861 29.5374Z"/>
</mask>
<path d="M12.8861 29.5374C12.8861 18.5552 21.7889 9.65247 32.771 9.65247H120.905C131.887 9.65247 140.79 18.5552 140.79 29.5374C140.79 36.2221 135.371 41.6412 128.686 41.6412H24.9899C18.3052 41.6412 12.8861 36.2221 12.8861 29.5374Z" fill="url(#paint2_linear_211_614)"/>
<path d="M12.8861 9.65247H140.79H12.8861ZM140.79 29.5374C140.79 36.8849 134.833 42.8412 127.486 42.8412H26.19C18.8424 42.8412 12.8861 36.8849 12.8861 29.5374C12.8861 35.5594 18.3052 40.4412 24.99 40.4412H128.686C135.371 40.4412 140.79 35.5594 140.79 29.5374ZM12.8861 41.6412V9.65247V41.6412ZM140.79 9.65247V41.6412V9.65247Z" fill="white" mask="url(#path-8-inside-4_211_614)"/>
<g filter="url(#filter1_f_211_614)">
<path d="M124.614 9.22009C125.039 9.32009 125.458 9.44138 125.866 9.57836C129.503 10.8617 132.465 13.0236 135.138 15.4247C137.794 17.8558 140.121 20.6645 142.046 24.0597C142.261 24.4412 142.467 24.8178 142.671 25.2145C142.661 24.7685 142.636 24.3343 142.59 23.8882C142.202 19.9066 140.221 15.9805 137.161 13.2086C134.129 10.442 129.993 8.68529 125.93 9.01201C125.482 9.05161 125.039 9.12004 124.614 9.22009Z" fill="white" fill-opacity="0.76"/>
</g>
<g filter="url(#filter2_d_211_614)">
<path d="M52.8149 16.3929H54.4757V18.0536H52.8149V16.3929ZM54.4757 16.3929H56.1364V18.0536H54.4757V16.3929ZM56.1364 16.3929H57.7971V18.0536H56.1364V16.3929ZM57.7971 16.3929H59.4578V18.0536H57.7971V16.3929ZM59.4578 16.3929H61.1185V18.0536H59.4578V16.3929ZM61.1185 16.3929H62.7792V18.0536H61.1185V16.3929ZM61.1185 18.0536H62.7792V19.7143H61.1185V18.0536ZM59.4578 18.0536H61.1185V19.7143H59.4578V18.0536ZM57.7971 18.0536H59.4578V19.7143H57.7971V18.0536ZM56.1364 18.0536H57.7971V19.7143H56.1364V18.0536ZM54.4757 18.0536H56.1364V19.7143H54.4757V18.0536ZM52.8149 18.0536H54.4757V19.7143H52.8149V18.0536ZM62.7792 18.0536H64.4399V19.7143H62.7792V18.0536ZM62.7792 19.7143H64.4399V21.375H62.7792V19.7143ZM62.7792 21.375H64.4399V23.0357H62.7792V21.375ZM61.1185 21.375H62.7792V23.0357H61.1185V21.375ZM61.1185 19.7143H62.7792V21.375H61.1185V19.7143ZM61.1185 23.0357H62.7792V24.6964H61.1185V23.0357ZM59.4578 23.0357H61.1185V24.6964H59.4578V23.0357ZM57.7971 23.0357H59.4578V24.6964H57.7971V23.0357ZM56.1364 23.0357H57.7971V24.6964H56.1364V23.0357ZM54.4757 23.0357H56.1364V24.6964H54.4757V23.0357ZM54.4757 21.375H56.1364V23.0357H54.4757V21.375ZM54.4757 19.7143H56.1364V21.375H54.4757V19.7143ZM52.8149 19.7143H54.4757V21.375H52.8149V19.7143ZM52.8149 21.375H54.4757V23.0357H52.8149V21.375ZM52.8149 23.0357H54.4757V24.6964H52.8149V23.0357ZM52.8149 24.6964H54.4757V26.3571H52.8149V24.6964ZM54.4757 24.6964H56.1364V26.3571H54.4757V24.6964ZM56.1364 24.6964H57.7971V26.3571H56.1364V24.6964ZM57.7971 24.6964H59.4578V26.3571H57.7971V24.6964ZM59.4578 24.6964H61.1185V26.3571H59.4578V24.6964ZM61.1185 24.6964H62.7792V26.3571H61.1185V24.6964ZM62.7792 24.6964H64.4399V26.3571H62.7792V24.6964ZM62.7792 26.3571H64.4399V28.0179H62.7792V26.3571ZM61.1185 26.3571H62.7792V28.0179H61.1185V26.3571ZM61.1185 29.6786H62.7792V31.3393H61.1185V29.6786ZM62.7792 29.6786H64.4399V31.3393H62.7792V29.6786ZM62.7792 28.0179H64.4399V29.6786H62.7792V28.0179ZM61.1185 28.0179H62.7792V29.6786H61.1185V28.0179ZM61.1185 31.3393H62.7792V33H61.1185V31.3393ZM59.4578 31.3393H61.1185V33H59.4578V31.3393ZM57.7971 31.3393H59.4578V33H57.7971V31.3393ZM56.1364 31.3393H57.7971V33H56.1364V31.3393ZM54.4757 31.3393H56.1364V33H54.4757V31.3393ZM52.8149 31.3393H54.4757V33H52.8149V31.3393ZM52.8149 29.6786H54.4757V31.3393H52.8149V29.6786ZM52.8149 28.0179H54.4757V29.6786H52.8149V28.0179ZM52.8149 26.3571H54.4757V28.0179H52.8149V26.3571ZM54.4757 26.3571H56.1364V28.0179H54.4757V26.3571ZM54.4757 28.0179H56.1364V29.6786H54.4757V28.0179ZM54.4757 29.6786H56.1364V31.3393H54.4757V29.6786ZM56.1364 29.6786H57.7971V31.3393H56.1364V29.6786ZM57.7971 29.6786H59.4578V31.3393H57.7971V29.6786ZM59.4578 29.6786H61.1185V31.3393H59.4578V29.6786ZM69.4264 18.0536H71.0871V19.7143H69.4264V18.0536ZM71.0871 18.0536H72.7478V19.7143H71.0871V18.0536ZM71.0871 16.3929H72.7478V18.0536H71.0871V16.3929ZM72.7478 18.0536H74.4086V19.7143H72.7478V18.0536ZM72.7478 19.7143H74.4086V21.375H72.7478V19.7143ZM74.4086 19.7143H76.0693V21.375H74.4086V19.7143ZM71.0871 19.7143H72.7478V21.375H71.0871V19.7143ZM69.4264 19.7143H71.0871V21.375H69.4264V19.7143ZM67.7657 19.7143H69.4264V21.375H67.7657V19.7143ZM67.7657 21.375H69.4264V23.0357H67.7657V21.375ZM66.105 21.375H67.7657V23.0357H66.105V21.375ZM69.4264 21.375H71.0871V23.0357H69.4264V21.375ZM67.7657 23.0357H69.4264V24.6964H67.7657V23.0357ZM67.7657 24.6964H69.4264V26.3571H67.7657V24.6964ZM67.7657 26.3571H69.4264V28.0179H67.7657V26.3571ZM69.4264 26.3571H71.0871V28.0179H69.4264V26.3571ZM71.0871 26.3571H72.7478V28.0179H71.0871V26.3571ZM72.7478 26.3571H74.4086V28.0179H72.7478V26.3571ZM74.4086 26.3571H76.0693V28.0179H74.4086V26.3571ZM76.0693 26.3571H77.73V28.0179H76.0693V26.3571ZM76.0693 24.6964H77.73V26.3571H76.0693V24.6964ZM76.0693 23.0357H77.73V24.6964H76.0693V23.0357ZM76.0693 21.375H77.73V23.0357H76.0693V21.375ZM74.4086 21.375H76.0693V23.0357H74.4086V21.375ZM72.7478 21.375H74.4086V23.0357H72.7478V21.375ZM74.4086 23.0357H76.0693V24.6964H74.4086V23.0357ZM74.4086 24.6964H76.0693V26.3571H74.4086V24.6964ZM74.4086 28.0179H76.0693V29.6786H74.4086V28.0179ZM76.0693 28.0179H77.73V29.6786H76.0693V28.0179ZM76.0693 29.6786H77.73V31.3393H76.0693V29.6786ZM76.0693 31.3393H77.73V33H76.0693V31.3393ZM74.4086 31.3393H76.0693V33H74.4086V31.3393ZM74.4086 29.6786H76.0693V31.3393H74.4086V29.6786ZM72.7478 28.0179H74.4086V29.6786H72.7478V28.0179ZM71.0871 28.0179H72.7478V29.6786H71.0871V28.0179ZM69.4264 28.0179H71.0871V29.6786H69.4264V28.0179ZM67.7657 28.0179H69.4264V29.6786H67.7657V28.0179ZM67.7657 29.6786H69.4264V31.3393H67.7657V29.6786ZM67.7657 31.3393H69.4264V33H67.7657V31.3393ZM66.105 31.3393H67.7657V33H66.105V31.3393ZM66.105 29.6786H67.7657V31.3393H66.105V29.6786ZM66.105 28.0179H67.7657V29.6786H66.105V28.0179ZM66.105 26.3571H67.7657V28.0179H66.105V26.3571ZM66.105 24.6964H67.7657V26.3571H66.105V24.6964ZM66.105 23.0357H67.7657V24.6964H66.105V23.0357ZM82.7164 16.3929H84.3772V18.0536H82.7164V16.3929ZM81.0557 16.3929H82.7164V18.0536H81.0557V16.3929ZM81.0557 18.0536H82.7164V19.7143H81.0557V18.0536ZM82.7164 18.0536H84.3772V19.7143H82.7164V18.0536ZM84.3772 18.0536H86.0379V19.7143H84.3772V18.0536ZM84.3772 16.3929H86.0379V18.0536H84.3772V16.3929ZM86.0379 16.3929H87.6986V18.0536H86.0379V16.3929ZM87.6986 16.3929H89.3593V18.0536H87.6986V16.3929ZM87.6986 18.0536H89.3593V19.7143H87.6986V18.0536ZM86.0379 18.0536H87.6986V19.7143H86.0379V18.0536ZM87.6986 19.7143H89.3593V21.375H87.6986V19.7143ZM89.3593 18.0536H91.02V19.7143H89.3593V18.0536ZM89.3593 19.7143H91.02V21.375H89.3593V19.7143ZM89.3593 28.0179H91.02V29.6786H89.3593V28.0179ZM89.3593 29.6786H91.02V31.3393H89.3593V29.6786ZM87.6986 29.6786H89.3593V31.3393H87.6986V29.6786ZM87.6986 28.0179H89.3593V29.6786H87.6986V28.0179ZM86.0379 29.6786H87.6986V31.3393H86.0379V29.6786ZM87.6986 31.3393H89.3593V33H87.6986V31.3393ZM86.0379 31.3393H87.6986V33H86.0379V31.3393ZM84.3772 31.3393H86.0379V33H84.3772V31.3393ZM84.3772 29.6786H86.0379V31.3393H84.3772V29.6786ZM82.7164 31.3393H84.3772V33H82.7164V31.3393ZM81.0557 31.3393H82.7164V33H81.0557V31.3393ZM81.0557 29.6786H82.7164V31.3393H81.0557V29.6786ZM82.7164 29.6786H84.3772V31.3393H82.7164V29.6786ZM82.7164 28.0179H84.3772V29.6786H82.7164V28.0179ZM81.0557 28.0179H82.7164V29.6786H81.0557V28.0179ZM79.395 29.6786H81.0557V31.3393H79.395V29.6786ZM79.395 28.0179H81.0557V29.6786H79.395V28.0179ZM79.395 26.3571H81.0557V28.0179H79.395V26.3571ZM79.395 24.6964H81.0557V26.3571H79.395V24.6964ZM79.395 23.0357H81.0557V24.6964H79.395V23.0357ZM79.395 21.375H81.0557V23.0357H79.395V21.375ZM79.395 19.7143H81.0557V21.375H79.395V19.7143ZM81.0557 19.7143H82.7164V21.375H81.0557V19.7143ZM79.395 18.0536H81.0557V19.7143H79.395V18.0536ZM82.7164 19.7143H84.3772V21.375H82.7164V19.7143ZM81.0557 21.375H82.7164V23.0357H81.0557V21.375ZM81.0557 23.0357H82.7164V24.6964H81.0557V23.0357ZM81.0557 24.6964H82.7164V26.3571H81.0557V24.6964ZM81.0557 26.3571H82.7164V28.0179H81.0557V26.3571ZM94.3458 16.3929H96.0065V18.0536H94.3458V16.3929ZM92.6851 16.3929H94.3458V18.0536H92.6851V16.3929ZM92.6851 18.0536H94.3458V19.7143H92.6851V18.0536ZM92.6851 19.7143H94.3458V21.375H92.6851V19.7143ZM92.6851 21.375H94.3458V23.0357H92.6851V21.375ZM92.6851 23.0357H94.3458V24.6964H92.6851V23.0357ZM92.6851 24.6964H94.3458V26.3571H92.6851V24.6964ZM92.6851 26.3571H94.3458V28.0179H92.6851V26.3571ZM92.6851 28.0179H94.3458V29.6786H92.6851V28.0179ZM92.6851 29.6786H94.3458V31.3393H92.6851V29.6786ZM92.6851 31.3393H94.3458V33H92.6851V31.3393ZM94.3458 31.3393H96.0065V33H94.3458V31.3393ZM94.3458 29.6786H96.0065V31.3393H94.3458V29.6786ZM94.3458 28.0179H96.0065V29.6786H94.3458V28.0179ZM94.3458 26.3571H96.0065V28.0179H94.3458V26.3571ZM94.3458 24.6964H96.0065V26.3571H94.3458V24.6964ZM94.3458 23.0357H96.0065V24.6964H94.3458V23.0357ZM94.3458 21.375H96.0065V23.0357H94.3458V21.375ZM94.3458 19.7143H96.0065V21.375H94.3458V19.7143ZM94.3458 18.0536H96.0065V19.7143H94.3458V18.0536ZM96.0065 24.6964H97.6672V26.3571H96.0065V24.6964ZM97.6672 24.6964H99.3279V26.3571H97.6672V24.6964ZM97.6672 23.0357H99.3279V24.6964H97.6672V23.0357ZM96.0065 23.0357H97.6672V24.6964H96.0065V23.0357ZM97.6672 21.375H99.3279V23.0357H97.6672V21.375ZM99.3279 21.375H100.989V23.0357H99.3279V21.375ZM99.3279 19.7143H100.989V21.375H99.3279V19.7143ZM99.3279 18.0536H100.989V19.7143H99.3279V18.0536ZM99.3279 16.3929H100.989V18.0536H99.3279V16.3929ZM100.989 16.3929H102.649V18.0536H100.989V16.3929ZM100.989 18.0536H102.649V19.7143H100.989V18.0536ZM100.989 19.7143H102.649V21.375H100.989V19.7143ZM97.6672 26.3571H99.3279V28.0179H97.6672V26.3571ZM99.3279 26.3571H100.989V28.0179H99.3279V26.3571ZM99.3279 28.0179H100.989V29.6786H99.3279V28.0179ZM99.3279 29.6786H100.989V31.3393H99.3279V29.6786ZM99.3279 31.3393H100.989V33H99.3279V31.3393ZM100.989 31.3393H102.649V33H100.989V31.3393ZM100.989 29.6786H102.649V31.3393H100.989V29.6786ZM100.989 28.0179H102.649V29.6786H100.989V28.0179ZM100.989 26.3571H102.649V28.0179H100.989V26.3571ZM99.3279 24.6964H100.989V26.3571H99.3279V24.6964Z" fill="white"/>
</g>
<defs>
<filter id="filter0_d_211_614" x="0.5" y="0.5" width="154.815" height="58" filterUnits="userSpaceOnUse" color-interpolation-filters="sRGB">
<feFlood flood-opacity="0" result="BackgroundImageFix"/>
<feColorMatrix in="SourceAlpha" type="matrix" values="0 0 0 0 0 0 0 0 0 0 0 0 0 0 0 0 0 0 127 0" result="hardAlpha"/>
<feOffset dx="1" dy="2"/>
<feGaussianBlur stdDeviation="3.25"/>
<feComposite in2="hardAlpha" operator="out"/>
<feColorMatrix type="matrix" values="0 0 0 0 0.194157 0 0 0 0 0.264539 0 0 0 0 0.504808 0 0 0 1 0"/>
<feBlend mode="multiply" in2="BackgroundImageFix" result="effect1_dropShadow_211_614"/>
<feBlend mode="normal" in="SourceGraphic" in2="effect1_dropShadow_211_614" result="shape"/>
</filter>
<filter id="filter1_f_211_614" x="120.614" y="4.97302" width="26.057" height="24.2415" filterUnits="userSpaceOnUse" color-interpolation-filters="sRGB">
<feFlood flood-opacity="0" result="BackgroundImageFix"/>
<feBlend mode="normal" in="SourceGraphic" in2="BackgroundImageFix" result="shape"/>
<feGaussianBlur stdDeviation="2" result="effect1_foregroundBlur_211_614"/>
</filter>
<filter id="filter2_d_211_614" x="52.8149" y="16.3928" width="50.8344" height="17.6072" filterUnits="userSpaceOnUse" color-interpolation-filters="sRGB">
<feFlood flood-opacity="0" result="BackgroundImageFix"/>
<feColorMatrix in="SourceAlpha" type="matrix" values="0 0 0 0 0 0 0 0 0 0 0 0 0 0 0 0 0 0 127 0" result="hardAlpha"/>
<feOffset dx="1" dy="1"/>
<feComposite in2="hardAlpha" operator="out"/>
<feColorMatrix type="matrix" values="0 0 0 0 0.0483774 0 0 0 0 0.495868 0 0 0 0 0.774038 0 0 0 0.48 0"/>
<feBlend mode="plus-darker" in2="BackgroundImageFix" result="effect1_dropShadow_211_614"/>
<feBlend mode="normal" in="SourceGraphic" in2="effect1_dropShadow_211_614" result="shape"/>
</filter>
<linearGradient id="paint0_linear_211_614" x1="76.9074" y1="6" x2="76.9074" y2="45" gradientUnits="userSpaceOnUse">
<stop stop-color="#02C9F5"/>
<stop offset="1" stop-color="#00698F"/>
</linearGradient>
<linearGradient id="paint1_linear_211_614" x1="83.4047" y1="6.36423" x2="83.4047" y2="45.4853" gradientUnits="userSpaceOnUse">
<stop offset="0.0001" stop-color="#5ACCFD"/>
<stop offset="1" stop-color="#00E6FF"/>
</linearGradient>
<linearGradient id="paint2_linear_211_614" x1="82.8679" y1="-8.5033" x2="82.8679" y2="42.0392" gradientUnits="userSpaceOnUse">
<stop offset="0.25" stop-color="#3D6ADE"/>
<stop offset="1" stop-color="#00E6FF"/>
</linearGradient>
</defs>
</svg>
