<svg width="196" height="61" viewBox="0 0 196 61" fill="none" xmlns="http://www.w3.org/2000/svg">
<g filter="url(#filter0_d_148_116)">
<mask id="path-1-outside-1_148_116" maskUnits="userSpaceOnUse" x="3.50574" y="2" width="188" height="52" fill="black">
<rect fill="white" x="3.50574" y="2" width="188" height="52"/>
<path d="M5.50574 31.0411C5.50574 15.5544 18.0602 3 33.5469 3H160.638C176.125 3 188.679 15.5544 188.679 31.0411C188.679 40.4678 181.037 48.1096 171.611 48.1096H22.5743C13.1476 48.1096 5.50574 40.4678 5.50574 31.0411Z"/>
</mask>
<path d="M3.50574 31.0411C3.50574 15.0022 16.5079 2 32.5469 2H161.638C177.677 2 190.679 15.0022 190.679 31.0411H186.679C186.679 16.1067 175.02 4 160.638 4H33.5469C19.1647 4 7.50574 16.1067 7.50574 31.0411H3.50574ZM190.679 34.0411C190.679 44.5724 182.142 53.1096 171.611 53.1096H22.5742C12.043 53.1096 3.50574 44.5724 3.50574 34.0411L7.50574 31.0411C7.50574 37.7064 14.2521 43.1096 22.5742 43.1096H171.611C179.933 43.1096 186.679 37.7064 186.679 31.0411L190.679 34.0411ZM22.5742 53.1096C12.043 53.1096 3.50574 44.5724 3.50574 34.0411V31.0411C3.50574 15.0022 16.5079 2 32.5469 2L33.5469 4C19.1647 4 7.50574 16.1067 7.50574 31.0411V31.0411C7.50574 37.7064 14.2521 43.1096 22.5742 43.1096V53.1096ZM161.638 2C177.677 2 190.679 15.0022 190.679 31.0411V34.0411C190.679 44.5724 182.142 53.1096 171.611 53.1096V43.1096C179.933 43.1096 186.679 37.7064 186.679 31.0411V31.0411C186.679 16.1067 175.02 4 160.638 4L161.638 2Z" fill="url(#paint0_linear_148_116)" mask="url(#path-1-outside-1_148_116)"/>
</g>
<path d="M5.50574 31.0411C5.50574 15.5544 18.0602 3 33.5469 3H160.638C176.125 3 188.679 15.5544 188.679 31.0411C188.679 40.4678 181.037 48.1096 171.611 48.1096H22.5743C13.1476 48.1096 5.50574 40.4678 5.50574 31.0411Z" fill="url(#paint1_linear_148_116)"/>
<mask id="path-4-inside-2_148_116" fill="white">
<path d="M5.50574 31.0411C5.50574 15.5544 18.0602 3 33.5469 3H160.638C176.125 3 188.679 15.5544 188.679 31.0411C188.679 40.4678 181.037 48.1096 171.611 48.1096H22.5743C13.1476 48.1096 5.50574 40.4678 5.50574 31.0411Z"/>
</mask>
<path d="M5.50574 3H188.679H5.50574ZM188.679 31.0411C188.679 43.2292 178.799 53.1096 166.611 53.1096H27.5742C15.3861 53.1096 5.50574 43.2292 5.50574 31.0411V31.0411C5.50574 37.7064 13.1476 43.1096 22.5742 43.1096H171.611C181.037 43.1096 188.679 37.7064 188.679 31.0411V31.0411ZM5.50574 48.1096V3V48.1096ZM188.679 3V48.1096V3Z" fill="#073AE4" fill-opacity="0.41" mask="url(#path-4-inside-2_148_116)"/>
<mask id="path-6-inside-3_148_116" fill="white">
<path d="M5.50574 31.0411C5.50574 15.5544 18.0602 3 33.5469 3H160.638C176.125 3 188.679 15.5544 188.679 31.0411C188.679 40.4678 181.037 48.1096 171.611 48.1096H22.5743C13.1476 48.1096 5.50574 40.4678 5.50574 31.0411Z"/>
</mask>
<path d="M5.50574 31.0411C5.50574 12.793 20.2988 -2 38.5469 -2H155.638C173.886 -2 188.679 12.793 188.679 31.0411V31.0411C188.679 18.3159 176.125 8 160.638 8H33.5469C18.0602 8 5.50574 18.3159 5.50574 31.0411V31.0411ZM188.679 48.1096H5.50574H188.679ZM5.50574 48.1096V3V48.1096ZM188.679 3V48.1096V3Z" fill="#B1E1FF" fill-opacity="0.41" mask="url(#path-6-inside-3_148_116)"/>
<mask id="path-8-inside-4_148_116" fill="white">
<path d="M12 30.2246C12 17.5221 22.2975 7.22461 35 7.22461H159C171.703 7.22461 182 17.5221 182 30.2246C182 37.9566 175.732 44.2246 168 44.2246H26C18.268 44.2246 12 37.9566 12 30.2246Z"/>
</mask>
<path d="M12 30.2246C12 17.5221 22.2975 7.22461 35 7.22461H159C171.703 7.22461 182 17.5221 182 30.2246C182 37.9566 175.732 44.2246 168 44.2246H26C18.268 44.2246 12 37.9566 12 30.2246Z" fill="url(#paint2_linear_148_116)"/>
<path d="M12 7.22461H182H12ZM182 30.2246C182 38.6193 175.195 45.4246 166.8 45.4246H27.2C18.8053 45.4246 12 38.6193 12 30.2246C12 37.2939 18.268 43.0246 26 43.0246H168C175.732 43.0246 182 37.2939 182 30.2246ZM12 44.2246V7.22461V44.2246ZM182 7.22461V44.2246V7.22461Z" fill="white" mask="url(#path-8-inside-4_148_116)"/>
<g filter="url(#filter1_f_148_116)">
<path d="M159 5C159.532 5.10004 160.061 5.22174 160.588 5.3602C165.251 6.65672 169.428 8.83837 173.157 11.487C176.853 14.1659 180.104 17.4749 181.945 21.9676C182.149 22.4698 182.333 22.9711 182.5 23.5C182.531 22.9462 182.534 22.4027 182.501 21.8433C182.259 16.7892 179.064 11.991 174.912 9.05405C170.752 6.07871 165.636 4.47998 160.64 4.79256C160.081 4.8319 159.532 4.9 159 5Z" fill="white" fill-opacity="0.76"/>
</g>
<g filter="url(#filter2_d_148_116)">
<path d="M54.3214 17.3929H55.9821V19.0536H54.3214V17.3929ZM52.6607 17.3929H54.3214V19.0536H52.6607V17.3929ZM52.6607 19.0536H54.3214V20.7143H52.6607V19.0536ZM54.3214 19.0536H55.9821V20.7143H54.3214V19.0536ZM55.9821 19.0536H57.6429V20.7143H55.9821V19.0536ZM55.9821 17.3929H57.6429V19.0536H55.9821V17.3929ZM57.6429 17.3929H59.3036V19.0536H57.6429V17.3929ZM59.3036 17.3929H60.9643V19.0536H59.3036V17.3929ZM59.3036 19.0536H60.9643V20.7143H59.3036V19.0536ZM57.6429 19.0536H59.3036V20.7143H57.6429V19.0536ZM59.3036 20.7143H60.9643V22.375H59.3036V20.7143ZM60.9643 19.0536H62.625V20.7143H60.9643V19.0536ZM60.9643 20.7143H62.625V22.375H60.9643V20.7143ZM60.9643 29.0179H62.625V30.6786H60.9643V29.0179ZM60.9643 30.6786H62.625V32.3393H60.9643V30.6786ZM59.3036 30.6786H60.9643V32.3393H59.3036V30.6786ZM59.3036 29.0179H60.9643V30.6786H59.3036V29.0179ZM57.6429 30.6786H59.3036V32.3393H57.6429V30.6786ZM59.3036 32.3393H60.9643V34H59.3036V32.3393ZM57.6429 32.3393H59.3036V34H57.6429V32.3393ZM55.9821 32.3393H57.6429V34H55.9821V32.3393ZM55.9821 30.6786H57.6429V32.3393H55.9821V30.6786ZM54.3214 32.3393H55.9821V34H54.3214V32.3393ZM52.6607 32.3393H54.3214V34H52.6607V32.3393ZM52.6607 30.6786H54.3214V32.3393H52.6607V30.6786ZM54.3214 30.6786H55.9821V32.3393H54.3214V30.6786ZM54.3214 29.0179H55.9821V30.6786H54.3214V29.0179ZM52.6607 29.0179H54.3214V30.6786H52.6607V29.0179ZM51 30.6786H52.6607V32.3393H51V30.6786ZM51 29.0179H52.6607V30.6786H51V29.0179ZM51 27.3571H52.6607V29.0179H51V27.3571ZM51 25.6964H52.6607V27.3571H51V25.6964ZM51 24.0357H52.6607V25.6964H51V24.0357ZM51 22.375H52.6607V24.0357H51V22.375ZM51 20.7143H52.6607V22.375H51V20.7143ZM52.6607 20.7143H54.3214V22.375H52.6607V20.7143ZM51 19.0536H52.6607V20.7143H51V19.0536ZM54.3214 20.7143H55.9821V22.375H54.3214V20.7143ZM52.6607 22.375H54.3214V24.0357H52.6607V22.375ZM52.6607 24.0357H54.3214V25.6964H52.6607V24.0357ZM52.6607 25.6964H54.3214V27.3571H52.6607V25.6964ZM52.6607 27.3571H54.3214V29.0179H52.6607V27.3571ZM67.6115 17.3929H69.2722V19.0536H67.6115V17.3929ZM65.9508 17.3929H67.6115V19.0536H65.9508V17.3929ZM65.9508 19.0536H67.6115V20.7143H65.9508V19.0536ZM67.6115 19.0536H69.2722V20.7143H67.6115V19.0536ZM69.2722 19.0536H70.9329V20.7143H69.2722V19.0536ZM69.2722 17.3929H70.9329V19.0536H69.2722V17.3929ZM70.9329 17.3929H72.5936V19.0536H70.9329V17.3929ZM72.5936 17.3929H74.2543V19.0536H72.5936V17.3929ZM72.5936 19.0536H74.2543V20.7143H72.5936V19.0536ZM70.9329 19.0536H72.5936V20.7143H70.9329V19.0536ZM70.9329 20.7143H72.5936V22.375H70.9329V20.7143ZM72.5936 20.7143H74.2543V22.375H72.5936V20.7143ZM74.2543 19.0536H75.915V20.7143H74.2543V19.0536ZM74.2543 20.7143H75.915V22.375H74.2543V20.7143ZM74.2543 22.375H75.915V24.0357H74.2543V22.375ZM74.2543 24.0357H75.915V25.6964H74.2543V24.0357ZM74.2543 25.6964H75.915V27.3571H74.2543V25.6964ZM74.2543 27.3571H75.915V29.0179H74.2543V27.3571ZM74.2543 29.0179H75.915V30.6786H74.2543V29.0179ZM74.2543 30.6786H75.915V32.3393H74.2543V30.6786ZM72.5936 30.6786H74.2543V32.3393H72.5936V30.6786ZM72.5936 29.0179H74.2543V30.6786H72.5936V29.0179ZM72.5936 27.3571H74.2543V29.0179H72.5936V27.3571ZM72.5936 25.6964H74.2543V27.3571H72.5936V25.6964ZM72.5936 24.0357H74.2543V25.6964H72.5936V24.0357ZM72.5936 22.375H74.2543V24.0357H72.5936V22.375ZM70.9329 29.0179H72.5936V30.6786H70.9329V29.0179ZM70.9329 30.6786H72.5936V32.3393H70.9329V30.6786ZM72.5936 32.3393H74.2543V34H72.5936V32.3393ZM70.9329 32.3393H72.5936V34H70.9329V32.3393ZM69.2722 32.3393H70.9329V34H69.2722V32.3393ZM69.2722 30.6786H70.9329V32.3393H69.2722V30.6786ZM67.6115 32.3393H69.2722V34H67.6115V32.3393ZM65.9508 32.3393H67.6115V34H65.9508V32.3393ZM65.9508 30.6786H67.6115V32.3393H65.9508V30.6786ZM67.6115 30.6786H69.2722V32.3393H67.6115V30.6786ZM67.6115 29.0179H69.2722V30.6786H67.6115V29.0179ZM65.9508 29.0179H67.6115V30.6786H65.9508V29.0179ZM64.29 30.6786H65.9508V32.3393H64.29V30.6786ZM64.29 29.0179H65.9508V30.6786H64.29V29.0179ZM64.29 27.3571H65.9508V29.0179H64.29V27.3571ZM64.29 25.6964H65.9508V27.3571H64.29V25.6964ZM64.29 24.0357H65.9508V25.6964H64.29V24.0357ZM64.29 22.375H65.9508V24.0357H64.29V22.375ZM64.29 20.7143H65.9508V22.375H64.29V20.7143ZM65.9508 20.7143H67.6115V22.375H65.9508V20.7143ZM64.29 19.0536H65.9508V20.7143H64.29V19.0536ZM67.6115 20.7143H69.2722V22.375H67.6115V20.7143ZM65.9508 22.375H67.6115V24.0357H65.9508V22.375ZM65.9508 24.0357H67.6115V25.6964H65.9508V24.0357ZM65.9508 25.6964H67.6115V27.3571H65.9508V25.6964ZM65.9508 27.3571H67.6115V29.0179H65.9508V27.3571ZM77.5801 32.3393H79.2408V34H77.5801V32.3393ZM77.5801 30.6786H79.2408V32.3393H77.5801V30.6786ZM77.5801 29.0179H79.2408V30.6786H77.5801V29.0179ZM77.5801 27.3571H79.2408V29.0179H77.5801V27.3571ZM77.5801 25.6964H79.2408V27.3571H77.5801V25.6964ZM77.5801 24.0357H79.2408V25.6964H77.5801V24.0357ZM79.2408 24.0357H80.9015V25.6964H79.2408V24.0357ZM79.2408 22.375H80.9015V24.0357H79.2408V22.375ZM79.2408 20.7143H80.9015V22.375H79.2408V20.7143ZM79.2408 19.0536H80.9015V20.7143H79.2408V19.0536ZM77.5801 19.0536H79.2408V20.7143H77.5801V19.0536ZM77.5801 17.3929H79.2408V19.0536H77.5801V17.3929ZM77.5801 20.7143H79.2408V22.375H77.5801V20.7143ZM77.5801 22.375H79.2408V24.0357H77.5801V22.375ZM79.2408 17.3929H80.9015V19.0536H79.2408V17.3929ZM79.2408 25.6964H80.9015V27.3571H79.2408V25.6964ZM79.2408 27.3571H80.9015V29.0179H79.2408V27.3571ZM79.2408 29.0179H80.9015V30.6786H79.2408V29.0179ZM79.2408 30.6786H80.9015V32.3393H79.2408V30.6786ZM79.2408 32.3393H80.9015V34H79.2408V32.3393ZM80.9015 20.7143H82.5622V22.375H80.9015V20.7143ZM80.9015 22.375H82.5622V24.0357H80.9015V22.375ZM82.5622 22.375H84.2229V24.0357H82.5622V22.375ZM82.5622 24.0357H84.2229V25.6964H82.5622V24.0357ZM84.2229 24.0357H85.8836V25.6964H84.2229V24.0357ZM84.2229 25.6964H85.8836V27.3571H84.2229V25.6964ZM85.8836 24.0357H87.5444V25.6964H85.8836V24.0357ZM85.8836 22.375H87.5444V24.0357H85.8836V22.375ZM87.5444 22.375H89.2051V24.0357H87.5444V22.375ZM87.5444 20.7143H89.2051V22.375H87.5444V20.7143ZM89.2051 17.3929H90.8658V19.0536H89.2051V17.3929ZM89.2051 19.0536H90.8658V20.7143H89.2051V19.0536ZM89.2051 20.7143H90.8658V22.375H89.2051V20.7143ZM89.2051 22.375H90.8658V24.0357H89.2051V22.375ZM89.2051 24.0357H90.8658V25.6964H89.2051V24.0357ZM89.2051 25.6964H90.8658V27.3571H89.2051V25.6964ZM89.2051 27.3571H90.8658V29.0179H89.2051V27.3571ZM89.2051 29.0179H90.8658V30.6786H89.2051V29.0179ZM89.2051 30.6786H90.8658V32.3393H89.2051V30.6786ZM89.2051 32.3393H90.8658V34H89.2051V32.3393ZM90.8658 32.3393H92.5265V34H90.8658V32.3393ZM90.8658 30.6786H92.5265V32.3393H90.8658V30.6786ZM90.8658 29.0179H92.5265V30.6786H90.8658V29.0179ZM90.8658 27.3571H92.5265V29.0179H90.8658V27.3571ZM90.8658 25.6964H92.5265V27.3571H90.8658V25.6964ZM90.8658 24.0357H92.5265V25.6964H90.8658V24.0357ZM90.8658 22.375H92.5265V24.0357H90.8658V22.375ZM90.8658 20.7143H92.5265V22.375H90.8658V20.7143ZM90.8658 19.0536H92.5265V20.7143H90.8658V19.0536ZM90.8658 17.3929H92.5265V19.0536H90.8658V17.3929ZM80.9015 19.0536H82.5622V20.7143H80.9015V19.0536ZM82.5622 20.7143H84.2229V22.375H82.5622V20.7143ZM84.2229 22.375H85.8836V24.0357H84.2229V22.375ZM85.8836 20.7143H87.5444V22.375H85.8836V20.7143ZM87.5444 19.0536H89.2051V20.7143H87.5444V19.0536ZM94.2002 17.3929H95.8609V19.0536H94.2002V17.3929ZM95.8609 17.3929H97.5216V19.0536H95.8609V17.3929ZM97.5216 17.3929H99.1823V19.0536H97.5216V17.3929ZM99.1823 17.3929H100.843V19.0536H99.1823V17.3929ZM100.843 17.3929H102.504V19.0536H100.843V17.3929ZM102.504 17.3929H104.164V19.0536H102.504V17.3929ZM102.504 19.0536H104.164V20.7143H102.504V19.0536ZM100.843 19.0536H102.504V20.7143H100.843V19.0536ZM99.1823 19.0536H100.843V20.7143H99.1823V19.0536ZM97.5216 19.0536H99.1823V20.7143H97.5216V19.0536ZM95.8609 19.0536H97.5216V20.7143H95.8609V19.0536ZM94.2002 19.0536H95.8609V20.7143H94.2002V19.0536ZM104.164 19.0536H105.825V20.7143H104.164V19.0536ZM102.504 20.7143H104.164V22.375H102.504V20.7143ZM104.164 20.7143H105.825V22.375H104.164V20.7143ZM104.164 22.375H105.825V24.0357H104.164V22.375ZM104.164 24.0357H105.825V25.6964H104.164V24.0357ZM102.504 24.0357H104.164V25.6964H102.504V24.0357ZM102.504 22.375H104.164V24.0357H102.504V22.375ZM102.504 25.6964H104.164V27.3571H102.504V25.6964ZM102.504 27.3571H104.164V29.0179H102.504V27.3571ZM100.843 27.3571H102.504V29.0179H100.843V27.3571ZM100.843 25.6964H102.504V27.3571H100.843V25.6964ZM99.1823 25.6964H100.843V27.3571H99.1823V25.6964ZM99.1823 27.3571H100.843V29.0179H99.1823V27.3571ZM97.5216 27.3571H99.1823V29.0179H97.5216V27.3571ZM97.5216 25.6964H99.1823V27.3571H97.5216V25.6964ZM95.8609 25.6964H97.5216V27.3571H95.8609V25.6964ZM94.2002 25.6964H95.8609V27.3571H94.2002V25.6964ZM94.2002 27.3571H95.8609V29.0179H94.2002V27.3571ZM95.8609 27.3571H97.5216V29.0179H95.8609V27.3571ZM94.2002 20.7143H95.8609V22.375H94.2002V20.7143ZM95.8609 20.7143H97.5216V22.375H95.8609V20.7143ZM95.8609 22.375H97.5216V24.0357H95.8609V22.375ZM95.8609 24.0357H97.5216V25.6964H95.8609V24.0357ZM94.2002 22.375H95.8609V24.0357H94.2002V22.375ZM94.2002 24.0357H95.8609V25.6964H94.2002V24.0357ZM94.2002 29.0179H95.8609V30.6786H94.2002V29.0179ZM95.8609 29.0179H97.5216V30.6786H95.8609V29.0179ZM95.8609 30.6786H97.5216V32.3393H95.8609V30.6786ZM95.8609 32.3393H97.5216V34H95.8609V32.3393ZM94.2002 32.3393H95.8609V34H94.2002V32.3393ZM94.2002 30.6786H95.8609V32.3393H94.2002V30.6786ZM104.164 25.6964H105.825V27.3571H104.164V25.6964ZM107.49 17.3929H109.151V19.0536H107.49V17.3929ZM109.151 17.3929H110.812V19.0536H109.151V17.3929ZM109.151 19.0536H110.812V20.7143H109.151V19.0536ZM109.151 20.7143H110.812V22.375H109.151V20.7143ZM109.151 22.375H110.812V24.0357H109.151V22.375ZM107.49 22.375H109.151V24.0357H107.49V22.375ZM107.49 20.7143H109.151V22.375H107.49V20.7143ZM107.49 19.0536H109.151V20.7143H107.49V19.0536ZM107.49 24.0357H109.151V25.6964H107.49V24.0357ZM107.49 25.6964H109.151V27.3571H107.49V25.6964ZM107.49 27.3571H109.151V29.0179H107.49V27.3571ZM109.151 25.6964H110.812V27.3571H109.151V25.6964ZM109.151 24.0357H110.812V25.6964H109.151V24.0357ZM109.151 27.3571H110.812V29.0179H109.151V27.3571ZM109.151 29.0179H110.812V30.6786H109.151V29.0179ZM107.49 30.6786H109.151V32.3393H107.49V30.6786ZM107.49 29.0179H109.151V30.6786H107.49V29.0179ZM107.49 32.3393H109.151V34H107.49V32.3393ZM109.151 32.3393H110.812V34H109.151V32.3393ZM109.151 30.6786H110.812V32.3393H109.151V30.6786ZM110.812 32.3393H112.472V34H110.812V32.3393ZM112.472 32.3393H114.133V34H112.472V32.3393ZM114.133 32.3393H115.794V34H114.133V32.3393ZM114.133 30.6786H115.794V32.3393H114.133V30.6786ZM112.472 30.6786H114.133V32.3393H112.472V30.6786ZM110.812 30.6786H112.472V32.3393H110.812V30.6786ZM110.812 17.3929H112.472V19.0536H110.812V17.3929ZM112.472 17.3929H114.133V19.0536H112.472V17.3929ZM114.133 17.3929H115.794V19.0536H114.133V17.3929ZM115.794 17.3929H117.455V19.0536H115.794V17.3929ZM114.133 19.0536H115.794V20.7143H114.133V19.0536ZM112.472 19.0536H114.133V20.7143H112.472V19.0536ZM110.812 19.0536H112.472V20.7143H110.812V19.0536ZM110.812 25.6964H112.472V27.3571H110.812V25.6964ZM112.472 24.0357H114.133V25.6964H112.472V24.0357ZM110.812 24.0357H112.472V25.6964H110.812V24.0357ZM112.472 25.6964H114.133V27.3571H112.472V25.6964ZM115.794 19.0536H117.455V20.7143H115.794V19.0536ZM115.794 30.6786H117.455V32.3393H115.794V30.6786ZM115.794 32.3393H117.455V34H115.794V32.3393ZM114.133 24.0357H115.794V25.6964H114.133V24.0357ZM114.133 25.6964H115.794V27.3571H114.133V25.6964ZM119.115 17.3929H120.776V19.0536H119.115V17.3929ZM120.776 17.3929H122.437V19.0536H120.776V17.3929ZM122.437 17.3929H124.097V19.0536H122.437V17.3929ZM124.097 17.3929H125.758V19.0536H124.097V17.3929ZM125.758 17.3929H127.419V19.0536H125.758V17.3929ZM127.419 17.3929H129.08V19.0536H127.419V17.3929ZM127.419 19.0536H129.08V20.7143H127.419V19.0536ZM125.758 19.0536H127.419V20.7143H125.758V19.0536ZM124.097 19.0536H125.758V20.7143H124.097V19.0536ZM122.437 19.0536H124.097V20.7143H122.437V19.0536ZM120.776 19.0536H122.437V20.7143H120.776V19.0536ZM119.115 19.0536H120.776V20.7143H119.115V19.0536ZM122.437 20.7143H124.097V22.375H122.437V20.7143ZM122.437 22.375H124.097V24.0357H122.437V22.375ZM122.437 24.0357H124.097V25.6964H122.437V24.0357ZM122.437 25.6964H124.097V27.3571H122.437V25.6964ZM122.437 27.3571H124.097V29.0179H122.437V27.3571ZM122.437 29.0179H124.097V30.6786H122.437V29.0179ZM124.097 27.3571H125.758V29.0179H124.097V27.3571ZM124.097 25.6964H125.758V27.3571H124.097V25.6964ZM124.097 24.0357H125.758V25.6964H124.097V24.0357ZM124.097 22.375H125.758V24.0357H124.097V22.375ZM124.097 20.7143H125.758V22.375H124.097V20.7143ZM124.097 29.0179H125.758V30.6786H124.097V29.0179ZM124.097 30.6786H125.758V32.3393H124.097V30.6786ZM124.097 32.3393H125.758V34H124.097V32.3393ZM122.437 32.3393H124.097V34H122.437V32.3393ZM122.437 30.6786H124.097V32.3393H122.437V30.6786ZM130.74 17.3929H132.401V19.0536H130.74V17.3929ZM132.401 17.3929H134.062V19.0536H132.401V17.3929ZM132.401 19.0536H134.062V20.7143H132.401V19.0536ZM132.401 20.7143H134.062V22.375H132.401V20.7143ZM132.401 22.375H134.062V24.0357H132.401V22.375ZM130.74 22.375H132.401V24.0357H130.74V22.375ZM130.74 20.7143H132.401V22.375H130.74V20.7143ZM130.74 19.0536H132.401V20.7143H130.74V19.0536ZM130.74 24.0357H132.401V25.6964H130.74V24.0357ZM130.74 25.6964H132.401V27.3571H130.74V25.6964ZM130.74 27.3571H132.401V29.0179H130.74V27.3571ZM132.401 25.6964H134.062V27.3571H132.401V25.6964ZM132.401 24.0357H134.062V25.6964H132.401V24.0357ZM132.401 27.3571H134.062V29.0179H132.401V27.3571ZM132.401 29.0179H134.062V30.6786H132.401V29.0179ZM130.74 30.6786H132.401V32.3393H130.74V30.6786ZM130.74 29.0179H132.401V30.6786H130.74V29.0179ZM130.74 32.3393H132.401V34H130.74V32.3393ZM132.401 32.3393H134.062V34H132.401V32.3393ZM132.401 30.6786H134.062V32.3393H132.401V30.6786ZM134.062 32.3393H135.722V34H134.062V32.3393ZM135.722 32.3393H137.383V34H135.722V32.3393ZM137.383 32.3393H139.044V34H137.383V32.3393ZM137.383 30.6786H139.044V32.3393H137.383V30.6786ZM135.722 30.6786H137.383V32.3393H135.722V30.6786ZM134.062 30.6786H135.722V32.3393H134.062V30.6786ZM134.062 17.3929H135.722V19.0536H134.062V17.3929ZM135.722 17.3929H137.383V19.0536H135.722V17.3929ZM137.383 17.3929H139.044V19.0536H137.383V17.3929ZM139.044 17.3929H140.705V19.0536H139.044V17.3929ZM137.383 19.0536H139.044V20.7143H137.383V19.0536ZM135.722 19.0536H137.383V20.7143H135.722V19.0536ZM134.062 19.0536H135.722V20.7143H134.062V19.0536ZM134.062 25.6964H135.722V27.3571H134.062V25.6964ZM135.722 24.0357H137.383V25.6964H135.722V24.0357ZM134.062 24.0357H135.722V25.6964H134.062V24.0357ZM135.722 25.6964H137.383V27.3571H135.722V25.6964ZM139.044 19.0536H140.705V20.7143H139.044V19.0536ZM139.044 30.6786H140.705V32.3393H139.044V30.6786ZM139.044 32.3393H140.705V34H139.044V32.3393ZM137.383 24.0357H139.044V25.6964H137.383V24.0357ZM137.383 25.6964H139.044V27.3571H137.383V25.6964Z" fill="white"/>
</g>
<defs>
<filter id="filter0_d_148_116" x="0.505737" y="1" width="195.174" height="59.1096" filterUnits="userSpaceOnUse" color-interpolation-filters="sRGB">
<feFlood flood-opacity="0" result="BackgroundImageFix"/>
<feColorMatrix in="SourceAlpha" type="matrix" values="0 0 0 0 0 0 0 0 0 0 0 0 0 0 0 0 0 0 127 0" result="hardAlpha"/>
<feOffset dx="1" dy="3"/>
<feGaussianBlur stdDeviation="2"/>
<feComposite in2="hardAlpha" operator="out"/>
<feColorMatrix type="matrix" values="0 0 0 0 0.270482 0 0 0 0 0.22966 0 0 0 0 0.692308 0 0 0 1 0"/>
<feBlend mode="multiply" in2="BackgroundImageFix" result="effect1_dropShadow_148_116"/>
<feBlend mode="normal" in="SourceGraphic" in2="effect1_dropShadow_148_116" result="shape"/>
</filter>
<filter id="filter1_f_148_116" x="155" y="0.753906" width="31.5245" height="26.7461" filterUnits="userSpaceOnUse" color-interpolation-filters="sRGB">
<feFlood flood-opacity="0" result="BackgroundImageFix"/>
<feBlend mode="normal" in="SourceGraphic" in2="BackgroundImageFix" result="shape"/>
<feGaussianBlur stdDeviation="2" result="effect1_foregroundBlur_148_116"/>
</filter>
<filter id="filter2_d_148_116" x="51" y="17.3928" width="90.7045" height="17.6072" filterUnits="userSpaceOnUse" color-interpolation-filters="sRGB">
<feFlood flood-opacity="0" result="BackgroundImageFix"/>
<feColorMatrix in="SourceAlpha" type="matrix" values="0 0 0 0 0 0 0 0 0 0 0 0 0 0 0 0 0 0 127 0" result="hardAlpha"/>
<feOffset dx="1" dy="1"/>
<feComposite in2="hardAlpha" operator="out"/>
<feColorMatrix type="matrix" values="0 0 0 0 0.015833 0 0 0 0 0.412239 0 0 0 0 0.658654 0 0 0 0.48 0"/>
<feBlend mode="plus-darker" in2="BackgroundImageFix" result="effect1_dropShadow_148_116"/>
<feBlend mode="normal" in="SourceGraphic" in2="effect1_dropShadow_148_116" result="shape"/>
</filter>
<linearGradient id="paint0_linear_148_116" x1="97.0925" y1="3" x2="97.0925" y2="48.1096" gradientUnits="userSpaceOnUse">
<stop stop-color="#0248B2"/>
<stop offset="1" stop-color="#023197"/>
</linearGradient>
<linearGradient id="paint1_linear_148_116" x1="105.728" y1="3.42129" x2="105.728" y2="48.6709" gradientUnits="userSpaceOnUse">
<stop offset="0.0001" stop-color="#5AECFD"/>
<stop offset="1" stop-color="#0059FF"/>
</linearGradient>
<linearGradient id="paint2_linear_148_116" x1="105.015" y1="-13.7754" x2="105.015" y2="44.685" gradientUnits="userSpaceOnUse">
<stop stop-color="#031B91"/>
<stop offset="0.9999" stop-color="#45C7FF"/>
</linearGradient>
</defs>
</svg>
