<svg width="218" height="65" viewBox="0 0 218 65" fill="none" xmlns="http://www.w3.org/2000/svg">
<g filter="url(#filter0_d_455_3)">
<mask id="path-1-outside-1_455_3" maskUnits="userSpaceOnUse" x="6" y="5" width="204" height="52" fill="black">
<rect fill="white" x="6" y="5" width="204" height="52"/>
<path d="M8 34.0411C8 18.5544 20.5544 6 36.0411 6H179.774C195.261 6 207.815 18.5544 207.815 34.0411C207.815 43.4678 200.173 51.1096 190.746 51.1096H25.0685C15.6418 51.1096 8 43.4678 8 34.0411Z"/>
</mask>
<path d="M6 34.0411C6 18.0022 19.0022 5 35.0411 5H180.774C196.813 5 209.815 18.0022 209.815 34.0411H205.815C205.815 19.1067 194.156 7 179.774 7H36.0411C21.659 7 10 19.1067 10 34.0411H6ZM209.815 37.0411C209.815 47.5724 201.278 56.1096 190.746 56.1096H25.0685C14.5373 56.1096 6 47.5724 6 37.0411L10 34.0411C10 40.7064 16.7464 46.1096 25.0685 46.1096H190.746C199.069 46.1096 205.815 40.7064 205.815 34.0411L209.815 37.0411ZM25.0685 56.1096C14.5373 56.1096 6 47.5724 6 37.0411V34.0411C6 18.0022 19.0022 5 35.0411 5L36.0411 7C21.659 7 10 19.1067 10 34.0411V34.0411C10 40.7064 16.7464 46.1096 25.0685 46.1096V56.1096ZM180.774 5C196.813 5 209.815 18.0022 209.815 34.0411V37.0411C209.815 47.5724 201.278 56.1096 190.746 56.1096V46.1096C199.069 46.1096 205.815 40.7064 205.815 34.0411V34.0411C205.815 19.1067 194.156 7 179.774 7L180.774 5Z" fill="url(#paint0_linear_455_3)" mask="url(#path-1-outside-1_455_3)"/>
</g>
<path d="M8 34.0411C8 18.5544 20.5544 6 36.0411 6H179.774C195.261 6 207.815 18.5544 207.815 34.0411C207.815 43.4678 200.173 51.1096 190.746 51.1096H25.0685C15.6418 51.1096 8 43.4678 8 34.0411Z" fill="url(#paint1_linear_455_3)"/>
<mask id="path-4-inside-2_455_3" fill="white">
<path d="M8 34.0411C8 18.5544 20.5544 6 36.0411 6H179.774C195.261 6 207.815 18.5544 207.815 34.0411C207.815 43.4678 200.173 51.1096 190.746 51.1096H25.0685C15.6418 51.1096 8 43.4678 8 34.0411Z"/>
</mask>
<path d="M8 6H207.815H8ZM207.815 34.0411C207.815 46.2292 197.935 56.1096 185.746 56.1096H30.0685C17.8804 56.1096 8 46.2292 8 34.0411V34.0411C8 40.7064 15.6418 46.1096 25.0685 46.1096H190.746C200.173 46.1096 207.815 40.7064 207.815 34.0411V34.0411ZM8 51.1096V6V51.1096ZM207.815 6V51.1096V6Z" fill="#E46E07" fill-opacity="0.41" mask="url(#path-4-inside-2_455_3)"/>
<mask id="path-6-inside-3_455_3" fill="white">
<path d="M8 34.0411C8 18.5544 20.5544 6 36.0411 6H179.774C195.261 6 207.815 18.5544 207.815 34.0411C207.815 43.4678 200.173 51.1096 190.746 51.1096H25.0685C15.6418 51.1096 8 43.4678 8 34.0411Z"/>
</mask>
<path d="M8 34.0411C8 15.793 22.793 1 41.0411 1H174.774C193.022 1 207.815 15.793 207.815 34.0411V34.0411C207.815 21.3159 195.261 11 179.774 11H36.0411C20.5544 11 8 21.3159 8 34.0411V34.0411ZM207.815 51.1096H8H207.815ZM8 51.1096V6V51.1096ZM207.815 6V51.1096V6Z" fill="#FFEFE2" fill-opacity="0.41" mask="url(#path-6-inside-3_455_3)"/>
<mask id="path-8-inside-4_455_3" fill="white">
<path d="M15.0843 33.2246C15.0843 20.5221 25.3817 10.2246 38.0843 10.2246H177.529C190.231 10.2246 200.529 20.5221 200.529 33.2246C200.529 40.9566 194.261 47.2246 186.529 47.2246H29.0843C21.3523 47.2246 15.0843 40.9566 15.0843 33.2246Z"/>
</mask>
<path d="M15.0843 33.2246C15.0843 20.5221 25.3817 10.2246 38.0843 10.2246H177.529C190.231 10.2246 200.529 20.5221 200.529 33.2246C200.529 40.9566 194.261 47.2246 186.529 47.2246H29.0843C21.3523 47.2246 15.0843 40.9566 15.0843 33.2246Z" fill="url(#paint2_linear_455_3)"/>
<path d="M15.0843 10.2246H200.529H15.0843ZM200.529 33.2246C200.529 41.6193 193.724 48.4246 185.329 48.4246H30.2843C21.8896 48.4246 15.0843 41.6193 15.0843 33.2246C15.0843 40.2939 21.3523 46.0246 29.0843 46.0246H186.529C194.261 46.0246 200.529 40.2939 200.529 33.2246ZM15.0843 47.2246V10.2246V47.2246ZM200.529 10.2246V47.2246V10.2246Z" fill="white" mask="url(#path-8-inside-4_455_3)"/>
<g filter="url(#filter1_f_455_3)">
<path d="M177.076 9.72461C177.637 9.82462 178.196 9.94477 178.751 10.0813C183.69 11.3526 188.116 13.582 192.148 16.2897C196.154 19.0271 199.762 22.361 202.414 26.7301C202.708 27.2181 202.988 27.7106 203.256 28.2246C203.178 27.65 203.075 27.0852 202.942 26.5162C201.768 21.3847 198.255 16.7867 193.835 13.809C189.412 10.8163 184.045 9.16853 178.798 9.51327C178.214 9.55488 177.637 9.62459 177.076 9.72461Z" fill="white" fill-opacity="0.76"/>
</g>
<g filter="url(#filter2_d_455_3)">
<path d="M37 20.3929H38.6607V22.0536H37V20.3929ZM38.6607 20.3929H40.3214V22.0536H38.6607V20.3929ZM38.6607 22.0536H40.3214V23.7143H38.6607V22.0536ZM38.6607 23.7143H40.3214V25.375H38.6607V23.7143ZM38.6607 25.375H40.3214V27.0357H38.6607V25.375ZM37 25.375H38.6607V27.0357H37V25.375ZM37 23.7143H38.6607V25.375H37V23.7143ZM37 22.0536H38.6607V23.7143H37V22.0536ZM37 27.0357H38.6607V28.6964H37V27.0357ZM37 28.6964H38.6607V30.3571H37V28.6964ZM37 30.3571H38.6607V32.0179H37V30.3571ZM38.6607 28.6964H40.3214V30.3571H38.6607V28.6964ZM38.6607 27.0357H40.3214V28.6964H38.6607V27.0357ZM38.6607 30.3571H40.3214V32.0179H38.6607V30.3571ZM38.6607 32.0179H40.3214V33.6786H38.6607V32.0179ZM37 33.6786H38.6607V35.3393H37V33.6786ZM37 32.0179H38.6607V33.6786H37V32.0179ZM37 35.3393H38.6607V37H37V35.3393ZM38.6607 35.3393H40.3214V37H38.6607V35.3393ZM38.6607 33.6786H40.3214V35.3393H38.6607V33.6786ZM40.3214 35.3393H41.9821V37H40.3214V35.3393ZM41.9821 35.3393H43.6429V37H41.9821V35.3393ZM43.6429 35.3393H45.3036V37H43.6429V35.3393ZM43.6429 33.6786H45.3036V35.3393H43.6429V33.6786ZM41.9821 33.6786H43.6429V35.3393H41.9821V33.6786ZM40.3214 33.6786H41.9821V35.3393H40.3214V33.6786ZM46.96 20.3929H48.6207V22.0536H46.96V20.3929ZM48.6207 20.3929H50.2814V22.0536H48.6207V20.3929ZM48.6207 22.0536H50.2814V23.7143H48.6207V22.0536ZM48.6207 23.7143H50.2814V25.375H48.6207V23.7143ZM48.6207 25.375H50.2814V27.0357H48.6207V25.375ZM46.96 25.375H48.6207V27.0357H46.96V25.375ZM46.96 23.7143H48.6207V25.375H46.96V23.7143ZM46.96 22.0536H48.6207V23.7143H46.96V22.0536ZM46.96 27.0357H48.6207V28.6964H46.96V27.0357ZM46.96 28.6964H48.6207V30.3571H46.96V28.6964ZM46.96 30.3571H48.6207V32.0179H46.96V30.3571ZM48.6207 28.6964H50.2814V30.3571H48.6207V28.6964ZM48.6207 27.0357H50.2814V28.6964H48.6207V27.0357ZM48.6207 30.3571H50.2814V32.0179H48.6207V30.3571ZM48.6207 32.0179H50.2814V33.6786H48.6207V32.0179ZM46.96 33.6786H48.6207V35.3393H46.96V33.6786ZM46.96 32.0179H48.6207V33.6786H46.96V32.0179ZM46.96 35.3393H48.6207V37H46.96V35.3393ZM48.6207 35.3393H50.2814V37H48.6207V35.3393ZM48.6207 33.6786H50.2814V35.3393H48.6207V33.6786ZM50.2814 35.3393H51.9421V37H50.2814V35.3393ZM51.9421 35.3393H53.6028V37H51.9421V35.3393ZM53.6028 35.3393H55.2635V37H53.6028V35.3393ZM53.6028 33.6786H55.2635V35.3393H53.6028V33.6786ZM51.9421 33.6786H53.6028V35.3393H51.9421V33.6786ZM50.2814 33.6786H51.9421V35.3393H50.2814V33.6786ZM50.2814 20.3929H51.9421V22.0536H50.2814V20.3929ZM51.9421 20.3929H53.6028V22.0536H51.9421V20.3929ZM53.6028 20.3929H55.2635V22.0536H53.6028V20.3929ZM55.2635 20.3929H56.9242V22.0536H55.2635V20.3929ZM53.6028 22.0536H55.2635V23.7143H53.6028V22.0536ZM51.9421 22.0536H53.6028V23.7143H51.9421V22.0536ZM50.2814 22.0536H51.9421V23.7143H50.2814V22.0536ZM50.2814 28.6964H51.9421V30.3571H50.2814V28.6964ZM51.9421 27.0357H53.6028V28.6964H51.9421V27.0357ZM50.2814 27.0357H51.9421V28.6964H50.2814V27.0357ZM51.9421 28.6964H53.6028V30.3571H51.9421V28.6964ZM55.2635 22.0536H56.9242V23.7143H55.2635V22.0536ZM55.2635 33.6786H56.9242V35.3393H55.2635V33.6786ZM55.2635 35.3393H56.9242V37H55.2635V35.3393ZM53.6028 27.0357H55.2635V28.6964H53.6028V27.0357ZM53.6028 28.6964H55.2635V30.3571H53.6028V28.6964ZM61.9064 22.0536H63.5671V23.7143H61.9064V22.0536ZM63.5671 22.0536H65.2278V23.7143H63.5671V22.0536ZM63.5671 20.3929H65.2278V22.0536H63.5671V20.3929ZM65.2278 22.0536H66.8885V23.7143H65.2278V22.0536ZM65.2278 23.7143H66.8885V25.375H65.2278V23.7143ZM66.8885 23.7143H68.5492V25.375H66.8885V23.7143ZM63.5671 23.7143H65.2278V25.375H63.5671V23.7143ZM61.9064 23.7143H63.5671V25.375H61.9064V23.7143ZM60.2457 23.7143H61.9064V25.375H60.2457V23.7143ZM60.2457 25.375H61.9064V27.0357H60.2457V25.375ZM58.585 25.375H60.2457V27.0357H58.585V25.375ZM61.9064 25.375H63.5671V27.0357H61.9064V25.375ZM60.2457 27.0357H61.9064V28.6964H60.2457V27.0357ZM60.2457 28.6964H61.9064V30.3571H60.2457V28.6964ZM60.2457 30.3571H61.9064V32.0179H60.2457V30.3571ZM61.9064 30.3571H63.5671V32.0179H61.9064V30.3571ZM63.5671 30.3571H65.2278V32.0179H63.5671V30.3571ZM65.2278 30.3571H66.8885V32.0179H65.2278V30.3571ZM66.8885 30.3571H68.5492V32.0179H66.8885V30.3571ZM68.5492 30.3571H70.21V32.0179H68.5492V30.3571ZM68.5492 28.6964H70.21V30.3571H68.5492V28.6964ZM68.5492 27.0357H70.21V28.6964H68.5492V27.0357ZM68.5492 25.375H70.21V27.0357H68.5492V25.375ZM66.8885 25.375H68.5492V27.0357H66.8885V25.375ZM65.2278 25.375H66.8885V27.0357H65.2278V25.375ZM66.8885 27.0357H68.5492V28.6964H66.8885V27.0357ZM66.8885 28.6964H68.5492V30.3571H66.8885V28.6964ZM66.8885 32.0179H68.5492V33.6786H66.8885V32.0179ZM68.5492 32.0179H70.21V33.6786H68.5492V32.0179ZM68.5492 33.6786H70.21V35.3393H68.5492V33.6786ZM68.5492 35.3393H70.21V37H68.5492V35.3393ZM66.8885 35.3393H68.5492V37H66.8885V35.3393ZM66.8885 33.6786H68.5492V35.3393H66.8885V33.6786ZM65.2278 32.0179H66.8885V33.6786H65.2278V32.0179ZM63.5671 32.0179H65.2278V33.6786H63.5671V32.0179ZM61.9064 32.0179H63.5671V33.6786H61.9064V32.0179ZM60.2457 32.0179H61.9064V33.6786H60.2457V32.0179ZM60.2457 33.6786H61.9064V35.3393H60.2457V33.6786ZM60.2457 35.3393H61.9064V37H60.2457V35.3393ZM58.585 35.3393H60.2457V37H58.585V35.3393ZM58.585 33.6786H60.2457V35.3393H58.585V33.6786ZM58.585 32.0179H60.2457V33.6786H58.585V32.0179ZM58.585 30.3571H60.2457V32.0179H58.585V30.3571ZM58.585 28.6964H60.2457V30.3571H58.585V28.6964ZM58.585 27.0357H60.2457V28.6964H58.585V27.0357ZM75.1964 20.3929H76.8571V22.0536H75.1964V20.3929ZM73.5357 20.3929H75.1964V22.0536H73.5357V20.3929ZM73.5357 22.0536H75.1964V23.7143H73.5357V22.0536ZM75.1964 22.0536H76.8571V23.7143H75.1964V22.0536ZM76.8571 22.0536H78.5179V23.7143H76.8571V22.0536ZM76.8571 20.3929H78.5179V22.0536H76.8571V20.3929ZM78.5179 20.3929H80.1786V22.0536H78.5179V20.3929ZM80.1786 20.3929H81.8393V22.0536H80.1786V20.3929ZM80.1786 22.0536H81.8393V23.7143H80.1786V22.0536ZM78.5179 22.0536H80.1786V23.7143H78.5179V22.0536ZM78.5179 23.7143H80.1786V25.375H78.5179V23.7143ZM80.1786 23.7143H81.8393V25.375H80.1786V23.7143ZM81.8393 22.0536H83.5V23.7143H81.8393V22.0536ZM81.8393 23.7143H83.5V25.375H81.8393V23.7143ZM81.8393 25.375H83.5V27.0357H81.8393V25.375ZM81.8393 27.0357H83.5V28.6964H81.8393V27.0357ZM81.8393 28.6964H83.5V30.3571H81.8393V28.6964ZM81.8393 30.3571H83.5V32.0179H81.8393V30.3571ZM81.8393 32.0179H83.5V33.6786H81.8393V32.0179ZM81.8393 33.6786H83.5V35.3393H81.8393V33.6786ZM80.1786 33.6786H81.8393V35.3393H80.1786V33.6786ZM80.1786 32.0179H81.8393V33.6786H80.1786V32.0179ZM80.1786 30.3571H81.8393V32.0179H80.1786V30.3571ZM80.1786 28.6964H81.8393V30.3571H80.1786V28.6964ZM80.1786 27.0357H81.8393V28.6964H80.1786V27.0357ZM80.1786 25.375H81.8393V27.0357H80.1786V25.375ZM78.5179 32.0179H80.1786V33.6786H78.5179V32.0179ZM78.5179 33.6786H80.1786V35.3393H78.5179V33.6786ZM80.1786 35.3393H81.8393V37H80.1786V35.3393ZM78.5179 35.3393H80.1786V37H78.5179V35.3393ZM76.8571 35.3393H78.5179V37H76.8571V35.3393ZM76.8571 33.6786H78.5179V35.3393H76.8571V33.6786ZM75.1964 35.3393H76.8571V37H75.1964V35.3393ZM73.5357 35.3393H75.1964V37H73.5357V35.3393ZM73.5357 33.6786H75.1964V35.3393H73.5357V33.6786ZM75.1964 33.6786H76.8571V35.3393H75.1964V33.6786ZM73.5357 32.0179H75.1964V33.6786H73.5357V32.0179ZM71.875 33.6786H73.5357V35.3393H71.875V33.6786ZM71.875 32.0179H73.5357V33.6786H71.875V32.0179ZM71.875 30.3571H73.5357V32.0179H71.875V30.3571ZM71.875 28.6964H73.5357V30.3571H71.875V28.6964ZM71.875 27.0357H73.5357V28.6964H71.875V27.0357ZM71.875 25.375H73.5357V27.0357H71.875V25.375ZM71.875 23.7143H73.5357V25.375H71.875V23.7143ZM73.5357 23.7143H75.1964V25.375H73.5357V23.7143ZM71.875 22.0536H73.5357V23.7143H71.875V22.0536ZM73.5357 25.375H75.1964V27.0357H73.5357V25.375ZM73.5357 27.0357H75.1964V28.6964H73.5357V27.0357ZM73.5357 28.6964H75.1964V30.3571H73.5357V28.6964ZM73.5357 30.3571H75.1964V32.0179H73.5357V30.3571ZM71.875 35.3393H73.5357V37H71.875V35.3393ZM71.875 20.3929H73.5357V22.0536H71.875V20.3929ZM85.165 20.3929H86.8258V22.0536H85.165V20.3929ZM86.8258 20.3929H88.4865V22.0536H86.8258V20.3929ZM86.8258 22.0536H88.4865V23.7143H86.8258V22.0536ZM86.8258 23.7143H88.4865V25.375H86.8258V23.7143ZM86.8258 25.375H88.4865V27.0357H86.8258V25.375ZM85.165 25.375H86.8258V27.0357H85.165V25.375ZM85.165 23.7143H86.8258V25.375H85.165V23.7143ZM85.165 22.0536H86.8258V23.7143H85.165V22.0536ZM85.165 27.0357H86.8258V28.6964H85.165V27.0357ZM85.165 28.6964H86.8258V30.3571H85.165V28.6964ZM85.165 30.3571H86.8258V32.0179H85.165V30.3571ZM86.8258 28.6964H88.4865V30.3571H86.8258V28.6964ZM86.8258 27.0357H88.4865V28.6964H86.8258V27.0357ZM86.8258 30.3571H88.4865V32.0179H86.8258V30.3571ZM86.8258 32.0179H88.4865V33.6786H86.8258V32.0179ZM85.165 33.6786H86.8258V35.3393H85.165V33.6786ZM85.165 32.0179H86.8258V33.6786H85.165V32.0179ZM85.165 35.3393H86.8258V37H85.165V35.3393ZM86.8258 35.3393H88.4865V37H86.8258V35.3393ZM86.8258 33.6786H88.4865V35.3393H86.8258V33.6786ZM88.4865 35.3393H90.1472V37H88.4865V35.3393ZM90.1472 35.3393H91.8079V37H90.1472V35.3393ZM91.8079 35.3393H93.4686V37H91.8079V35.3393ZM91.8079 33.6786H93.4686V35.3393H91.8079V33.6786ZM90.1472 33.6786H91.8079V35.3393H90.1472V33.6786ZM88.4865 33.6786H90.1472V35.3393H88.4865V33.6786ZM88.4865 20.3929H90.1472V22.0536H88.4865V20.3929ZM90.1472 20.3929H91.8079V22.0536H90.1472V20.3929ZM91.8079 20.3929H93.4686V22.0536H91.8079V20.3929ZM93.4686 20.3929H95.1293V22.0536H93.4686V20.3929ZM91.8079 22.0536H93.4686V23.7143H91.8079V22.0536ZM90.1472 22.0536H91.8079V23.7143H90.1472V22.0536ZM88.4865 22.0536H90.1472V23.7143H88.4865V22.0536ZM88.4865 28.6964H90.1472V30.3571H88.4865V28.6964ZM90.1472 27.0357H91.8079V28.6964H90.1472V27.0357ZM88.4865 27.0357H90.1472V28.6964H88.4865V27.0357ZM90.1472 28.6964H91.8079V30.3571H90.1472V28.6964ZM93.4686 22.0536H95.1293V23.7143H93.4686V22.0536ZM93.4686 33.6786H95.1293V35.3393H93.4686V33.6786ZM93.4686 35.3393H95.1293V37H93.4686V35.3393ZM91.8079 27.0357H93.4686V28.6964H91.8079V27.0357ZM91.8079 28.6964H93.4686V30.3571H91.8079V28.6964ZM98.4508 28.6964H100.111V30.3571H98.4508V28.6964ZM100.111 28.6964H101.772V30.3571H100.111V28.6964ZM101.772 28.6964H103.433V30.3571H101.772V28.6964ZM103.433 28.6964H105.094V30.3571H103.433V28.6964ZM100.111 30.3571H101.772V32.0179H100.111V30.3571ZM98.4508 30.3571H100.111V32.0179H98.4508V30.3571ZM101.772 30.3571H103.433V32.0179H101.772V30.3571ZM103.433 30.3571H105.094V32.0179H103.433V30.3571ZM105.094 32.0179H106.754V33.6786H105.094V32.0179ZM106.754 30.3571H108.415V32.0179H106.754V30.3571ZM105.094 30.3571H106.754V32.0179H105.094V30.3571ZM106.754 32.0179H108.415V33.6786H106.754V32.0179ZM105.094 33.6786H106.754V35.3393H105.094V33.6786ZM106.754 33.6786H108.415V35.3393H106.754V33.6786ZM106.754 35.3393H108.415V37H106.754V35.3393ZM105.094 35.3393H106.754V37H105.094V35.3393ZM98.4508 35.3393H100.111V37H98.4508V35.3393ZM96.79 35.3393H98.4508V37H96.79V35.3393ZM96.79 33.6786H98.4508V35.3393H96.79V33.6786ZM98.4508 33.6786H100.111V35.3393H98.4508V33.6786ZM98.4508 32.0179H100.111V33.6786H98.4508V32.0179ZM96.79 32.0179H98.4508V33.6786H96.79V32.0179ZM96.79 30.3571H98.4508V32.0179H96.79V30.3571ZM96.79 28.6964H98.4508V30.3571H96.79V28.6964ZM96.79 27.0357H98.4508V28.6964H96.79V27.0357ZM98.4508 27.0357H100.111V28.6964H98.4508V27.0357ZM96.79 20.3929H98.4508V22.0536H96.79V20.3929ZM98.4508 20.3929H100.111V22.0536H98.4508V20.3929ZM100.111 20.3929H101.772V22.0536H100.111V20.3929ZM101.772 20.3929H103.433V22.0536H101.772V20.3929ZM103.433 20.3929H105.094V22.0536H103.433V20.3929ZM105.094 20.3929H106.754V22.0536H105.094V20.3929ZM105.094 22.0536H106.754V23.7143H105.094V22.0536ZM103.433 22.0536H105.094V23.7143H103.433V22.0536ZM101.772 22.0536H103.433V23.7143H101.772V22.0536ZM100.111 22.0536H101.772V23.7143H100.111V22.0536ZM98.4508 22.0536H100.111V23.7143H98.4508V22.0536ZM96.79 22.0536H98.4508V23.7143H96.79V22.0536ZM96.79 23.7143H98.4508V25.375H96.79V23.7143ZM96.79 25.375H98.4508V27.0357H96.79V25.375ZM98.4508 25.375H100.111V27.0357H98.4508V25.375ZM98.4508 23.7143H100.111V25.375H98.4508V23.7143ZM105.094 23.7143H106.754V25.375H105.094V23.7143ZM106.754 23.7143H108.415V25.375H106.754V23.7143ZM106.754 22.0536H108.415V23.7143H106.754V22.0536ZM106.754 25.375H108.415V27.0357H106.754V25.375ZM105.094 25.375H106.754V27.0357H105.094V25.375ZM105.094 27.0357H106.754V28.6964H105.094V27.0357ZM106.754 27.0357H108.415V28.6964H106.754V27.0357ZM105.094 28.6964H106.754V30.3571H105.094V28.6964ZM116.71 20.3929H118.371V22.0536H116.71V20.3929ZM118.371 20.3929H120.031V22.0536H118.371V20.3929ZM120.031 20.3929H121.692V22.0536H120.031V20.3929ZM121.692 20.3929H123.353V22.0536H121.692V20.3929ZM123.353 20.3929H125.014V22.0536H123.353V20.3929ZM125.014 20.3929H126.674V22.0536H125.014V20.3929ZM125.014 22.0536H126.674V23.7143H125.014V22.0536ZM123.353 22.0536H125.014V23.7143H123.353V22.0536ZM121.692 22.0536H123.353V23.7143H121.692V22.0536ZM120.031 22.0536H121.692V23.7143H120.031V22.0536ZM118.371 22.0536H120.031V23.7143H118.371V22.0536ZM116.71 22.0536H118.371V23.7143H116.71V22.0536ZM126.674 22.0536H128.335V23.7143H126.674V22.0536ZM126.674 23.7143H128.335V25.375H126.674V23.7143ZM126.674 25.375H128.335V27.0357H126.674V25.375ZM125.014 25.375H126.674V27.0357H125.014V25.375ZM125.014 23.7143H126.674V25.375H125.014V23.7143ZM125.014 27.0357H126.674V28.6964H125.014V27.0357ZM123.353 27.0357H125.014V28.6964H123.353V27.0357ZM121.692 27.0357H123.353V28.6964H121.692V27.0357ZM120.031 27.0357H121.692V28.6964H120.031V27.0357ZM118.371 27.0357H120.031V28.6964H118.371V27.0357ZM118.371 25.375H120.031V27.0357H118.371V25.375ZM118.371 23.7143H120.031V25.375H118.371V23.7143ZM116.71 23.7143H118.371V25.375H116.71V23.7143ZM116.71 25.375H118.371V27.0357H116.71V25.375ZM116.71 27.0357H118.371V28.6964H116.71V27.0357ZM116.71 28.6964H118.371V30.3571H116.71V28.6964ZM118.371 28.6964H120.031V30.3571H118.371V28.6964ZM120.031 28.6964H121.692V30.3571H120.031V28.6964ZM121.692 28.6964H123.353V30.3571H121.692V28.6964ZM123.353 28.6964H125.014V30.3571H123.353V28.6964ZM125.014 28.6964H126.674V30.3571H125.014V28.6964ZM126.674 28.6964H128.335V30.3571H126.674V28.6964ZM126.674 30.3571H128.335V32.0179H126.674V30.3571ZM125.014 30.3571H126.674V32.0179H125.014V30.3571ZM125.014 33.6786H126.674V35.3393H125.014V33.6786ZM126.674 33.6786H128.335V35.3393H126.674V33.6786ZM126.674 32.0179H128.335V33.6786H126.674V32.0179ZM125.014 32.0179H126.674V33.6786H125.014V32.0179ZM125.014 35.3393H126.674V37H125.014V35.3393ZM123.353 35.3393H125.014V37H123.353V35.3393ZM121.692 35.3393H123.353V37H121.692V35.3393ZM120.031 35.3393H121.692V37H120.031V35.3393ZM118.371 35.3393H120.031V37H118.371V35.3393ZM116.71 35.3393H118.371V37H116.71V35.3393ZM116.71 33.6786H118.371V35.3393H116.71V33.6786ZM116.71 32.0179H118.371V33.6786H116.71V32.0179ZM116.71 30.3571H118.371V32.0179H116.71V30.3571ZM118.371 30.3571H120.031V32.0179H118.371V30.3571ZM118.371 32.0179H120.031V33.6786H118.371V32.0179ZM118.371 33.6786H120.031V35.3393H118.371V33.6786ZM120.031 33.6786H121.692V35.3393H120.031V33.6786ZM121.692 33.6786H123.353V35.3393H121.692V33.6786ZM123.353 33.6786H125.014V35.3393H123.353V33.6786ZM133.321 20.3929H134.982V22.0536H133.321V20.3929ZM131.661 20.3929H133.321V22.0536H131.661V20.3929ZM131.661 22.0536H133.321V23.7143H131.661V22.0536ZM133.321 22.0536H134.982V23.7143H133.321V22.0536ZM134.982 22.0536H136.643V23.7143H134.982V22.0536ZM134.982 20.3929H136.643V22.0536H134.982V20.3929ZM136.643 20.3929H138.304V22.0536H136.643V20.3929ZM138.304 20.3929H139.964V22.0536H138.304V20.3929ZM138.304 22.0536H139.964V23.7143H138.304V22.0536ZM136.643 22.0536H138.304V23.7143H136.643V22.0536ZM136.643 23.7143H138.304V25.375H136.643V23.7143ZM138.304 23.7143H139.964V25.375H138.304V23.7143ZM139.964 22.0536H141.625V23.7143H139.964V22.0536ZM139.964 23.7143H141.625V25.375H139.964V23.7143ZM139.964 25.375H141.625V27.0357H139.964V25.375ZM139.964 27.0357H141.625V28.6964H139.964V27.0357ZM139.964 28.6964H141.625V30.3571H139.964V28.6964ZM139.964 30.3571H141.625V32.0179H139.964V30.3571ZM139.964 32.0179H141.625V33.6786H139.964V32.0179ZM139.964 33.6786H141.625V35.3393H139.964V33.6786ZM138.304 33.6786H139.964V35.3393H138.304V33.6786ZM138.304 32.0179H139.964V33.6786H138.304V32.0179ZM138.304 30.3571H139.964V32.0179H138.304V30.3571ZM138.304 28.6964H139.964V30.3571H138.304V28.6964ZM138.304 27.0357H139.964V28.6964H138.304V27.0357ZM138.304 25.375H139.964V27.0357H138.304V25.375ZM136.643 32.0179H138.304V33.6786H136.643V32.0179ZM136.643 33.6786H138.304V35.3393H136.643V33.6786ZM138.304 35.3393H139.964V37H138.304V35.3393ZM136.643 35.3393H138.304V37H136.643V35.3393ZM134.982 35.3393H136.643V37H134.982V35.3393ZM134.982 33.6786H136.643V35.3393H134.982V33.6786ZM133.321 35.3393H134.982V37H133.321V35.3393ZM131.661 35.3393H133.321V37H131.661V35.3393ZM131.661 33.6786H133.321V35.3393H131.661V33.6786ZM133.321 33.6786H134.982V35.3393H133.321V33.6786ZM133.321 32.0179H134.982V33.6786H133.321V32.0179ZM131.661 32.0179H133.321V33.6786H131.661V32.0179ZM130 33.6786H131.661V35.3393H130V33.6786ZM130 32.0179H131.661V33.6786H130V32.0179ZM130 30.3571H131.661V32.0179H130V30.3571ZM130 28.6964H131.661V30.3571H130V28.6964ZM130 27.0357H131.661V28.6964H130V27.0357ZM130 25.375H131.661V27.0357H130V25.375ZM130 23.7143H131.661V25.375H130V23.7143ZM131.661 23.7143H133.321V25.375H131.661V23.7143ZM130 22.0536H131.661V23.7143H130V22.0536ZM133.321 23.7143H134.982V25.375H133.321V23.7143ZM131.661 25.375H133.321V27.0357H131.661V25.375ZM131.661 27.0357H133.321V28.6964H131.661V27.0357ZM131.661 28.6964H133.321V30.3571H131.661V28.6964ZM131.661 30.3571H133.321V32.0179H131.661V30.3571ZM146.611 22.0536H148.272V23.7143H146.611V22.0536ZM148.272 22.0536H149.933V23.7143H148.272V22.0536ZM148.272 20.3929H149.933V22.0536H148.272V20.3929ZM149.933 22.0536H151.594V23.7143H149.933V22.0536ZM149.933 23.7143H151.594V25.375H149.933V23.7143ZM151.594 23.7143H153.254V25.375H151.594V23.7143ZM148.272 23.7143H149.933V25.375H148.272V23.7143ZM146.611 23.7143H148.272V25.375H146.611V23.7143ZM144.951 23.7143H146.611V25.375H144.951V23.7143ZM144.951 25.375H146.611V27.0357H144.951V25.375ZM143.29 25.375H144.951V27.0357H143.29V25.375ZM146.611 25.375H148.272V27.0357H146.611V25.375ZM144.951 27.0357H146.611V28.6964H144.951V27.0357ZM144.951 28.6964H146.611V30.3571H144.951V28.6964ZM144.951 30.3571H146.611V32.0179H144.951V30.3571ZM146.611 30.3571H148.272V32.0179H146.611V30.3571ZM148.272 30.3571H149.933V32.0179H148.272V30.3571ZM149.933 30.3571H151.594V32.0179H149.933V30.3571ZM151.594 30.3571H153.254V32.0179H151.594V30.3571ZM153.254 30.3571H154.915V32.0179H153.254V30.3571ZM153.254 28.6964H154.915V30.3571H153.254V28.6964ZM153.254 27.0357H154.915V28.6964H153.254V27.0357ZM153.254 25.375H154.915V27.0357H153.254V25.375ZM151.594 25.375H153.254V27.0357H151.594V25.375ZM149.933 25.375H151.594V27.0357H149.933V25.375ZM151.594 27.0357H153.254V28.6964H151.594V27.0357ZM151.594 28.6964H153.254V30.3571H151.594V28.6964ZM151.594 32.0179H153.254V33.6786H151.594V32.0179ZM153.254 32.0179H154.915V33.6786H153.254V32.0179ZM153.254 33.6786H154.915V35.3393H153.254V33.6786ZM153.254 35.3393H154.915V37H153.254V35.3393ZM151.594 35.3393H153.254V37H151.594V35.3393ZM151.594 33.6786H153.254V35.3393H151.594V33.6786ZM149.933 32.0179H151.594V33.6786H149.933V32.0179ZM148.272 32.0179H149.933V33.6786H148.272V32.0179ZM146.611 32.0179H148.272V33.6786H146.611V32.0179ZM144.951 32.0179H146.611V33.6786H144.951V32.0179ZM144.951 33.6786H146.611V35.3393H144.951V33.6786ZM144.951 35.3393H146.611V37H144.951V35.3393ZM143.29 35.3393H144.951V37H143.29V35.3393ZM143.29 33.6786H144.951V35.3393H143.29V33.6786ZM143.29 32.0179H144.951V33.6786H143.29V32.0179ZM143.29 30.3571H144.951V32.0179H143.29V30.3571ZM143.29 28.6964H144.951V30.3571H143.29V28.6964ZM143.29 27.0357H144.951V28.6964H143.29V27.0357ZM158.241 28.6964H159.902V30.3571H158.241V28.6964ZM159.902 28.6964H161.562V30.3571H159.902V28.6964ZM161.562 28.6964H163.223V30.3571H161.562V28.6964ZM163.223 28.6964H164.884V30.3571H163.223V28.6964ZM159.902 30.3571H161.562V32.0179H159.902V30.3571ZM158.241 30.3571H159.902V32.0179H158.241V30.3571ZM161.562 30.3571H163.223V32.0179H161.562V30.3571ZM163.223 30.3571H164.884V32.0179H163.223V30.3571ZM164.884 32.0179H166.544V33.6786H164.884V32.0179ZM166.544 30.3571H168.205V32.0179H166.544V30.3571ZM164.884 30.3571H166.544V32.0179H164.884V30.3571ZM166.544 32.0179H168.205V33.6786H166.544V32.0179ZM164.884 33.6786H166.544V35.3393H164.884V33.6786ZM166.544 33.6786H168.205V35.3393H166.544V33.6786ZM166.544 35.3393H168.205V37H166.544V35.3393ZM164.884 35.3393H166.544V37H164.884V35.3393ZM158.241 35.3393H159.902V37H158.241V35.3393ZM156.58 35.3393H158.241V37H156.58V35.3393ZM156.58 33.6786H158.241V35.3393H156.58V33.6786ZM158.241 33.6786H159.902V35.3393H158.241V33.6786ZM158.241 32.0179H159.902V33.6786H158.241V32.0179ZM156.58 32.0179H158.241V33.6786H156.58V32.0179ZM156.58 30.3571H158.241V32.0179H156.58V30.3571ZM156.58 28.6964H158.241V30.3571H156.58V28.6964ZM156.58 27.0357H158.241V28.6964H156.58V27.0357ZM158.241 27.0357H159.902V28.6964H158.241V27.0357ZM156.58 20.3929H158.241V22.0536H156.58V20.3929ZM158.241 20.3929H159.902V22.0536H158.241V20.3929ZM159.902 20.3929H161.562V22.0536H159.902V20.3929ZM161.562 20.3929H163.223V22.0536H161.562V20.3929ZM163.223 20.3929H164.884V22.0536H163.223V20.3929ZM164.884 20.3929H166.544V22.0536H164.884V20.3929ZM164.884 22.0536H166.544V23.7143H164.884V22.0536ZM163.223 22.0536H164.884V23.7143H163.223V22.0536ZM161.562 22.0536H163.223V23.7143H161.562V22.0536ZM159.902 22.0536H161.562V23.7143H159.902V22.0536ZM158.241 22.0536H159.902V23.7143H158.241V22.0536ZM156.58 22.0536H158.241V23.7143H156.58V22.0536ZM156.58 23.7143H158.241V25.375H156.58V23.7143ZM156.58 25.375H158.241V27.0357H156.58V25.375ZM158.241 25.375H159.902V27.0357H158.241V25.375ZM158.241 23.7143H159.902V25.375H158.241V23.7143ZM164.884 23.7143H166.544V25.375H164.884V23.7143ZM166.544 23.7143H168.205V25.375H166.544V23.7143ZM166.544 22.0536H168.205V23.7143H166.544V22.0536ZM166.544 25.375H168.205V27.0357H166.544V25.375ZM164.884 25.375H166.544V27.0357H164.884V25.375ZM164.884 27.0357H166.544V28.6964H164.884V27.0357ZM166.544 27.0357H168.205V28.6964H166.544V27.0357ZM164.884 28.6964H166.544V30.3571H164.884V28.6964ZM173.192 20.3929H174.852V22.0536H173.192V20.3929ZM171.531 20.3929H173.192V22.0536H171.531V20.3929ZM171.531 22.0536H173.192V23.7143H171.531V22.0536ZM173.192 22.0536H174.852V23.7143H173.192V22.0536ZM174.852 22.0536H176.513V23.7143H174.852V22.0536ZM174.852 20.3929H176.513V22.0536H174.852V20.3929ZM176.513 20.3929H178.174V22.0536H176.513V20.3929ZM178.174 20.3929H179.834V22.0536H178.174V20.3929ZM178.174 22.0536H179.834V23.7143H178.174V22.0536ZM176.513 22.0536H178.174V23.7143H176.513V22.0536ZM176.513 23.7143H178.174V25.375H176.513V23.7143ZM178.174 23.7143H179.834V25.375H178.174V23.7143ZM179.834 22.0536H181.495V23.7143H179.834V22.0536ZM179.834 23.7143H181.495V25.375H179.834V23.7143ZM179.834 25.375H181.495V27.0357H179.834V25.375ZM179.834 27.0357H181.495V28.6964H179.834V27.0357ZM179.834 28.6964H181.495V30.3571H179.834V28.6964ZM179.834 30.3571H181.495V32.0179H179.834V30.3571ZM179.834 32.0179H181.495V33.6786H179.834V32.0179ZM179.834 33.6786H181.495V35.3393H179.834V33.6786ZM178.174 33.6786H179.834V35.3393H178.174V33.6786ZM178.174 32.0179H179.834V33.6786H178.174V32.0179ZM178.174 30.3571H179.834V32.0179H178.174V30.3571ZM178.174 28.6964H179.834V30.3571H178.174V28.6964ZM178.174 27.0357H179.834V28.6964H178.174V27.0357ZM178.174 25.375H179.834V27.0357H178.174V25.375ZM176.513 32.0179H178.174V33.6786H176.513V32.0179ZM176.513 33.6786H178.174V35.3393H176.513V33.6786ZM178.174 35.3393H179.834V37H178.174V35.3393ZM176.513 35.3393H178.174V37H176.513V35.3393ZM174.852 35.3393H176.513V37H174.852V35.3393ZM174.852 33.6786H176.513V35.3393H174.852V33.6786ZM173.192 35.3393H174.852V37H173.192V35.3393ZM171.531 35.3393H173.192V37H171.531V35.3393ZM171.531 33.6786H173.192V35.3393H171.531V33.6786ZM173.192 33.6786H174.852V35.3393H173.192V33.6786ZM171.531 32.0179H173.192V33.6786H171.531V32.0179ZM169.87 33.6786H171.531V35.3393H169.87V33.6786ZM169.87 32.0179H171.531V33.6786H169.87V32.0179ZM169.87 30.3571H171.531V32.0179H169.87V30.3571ZM169.87 28.6964H171.531V30.3571H169.87V28.6964ZM169.87 27.0357H171.531V28.6964H169.87V27.0357ZM169.87 25.375H171.531V27.0357H169.87V25.375ZM169.87 23.7143H171.531V25.375H169.87V23.7143ZM171.531 23.7143H173.192V25.375H171.531V23.7143ZM169.87 22.0536H171.531V23.7143H169.87V22.0536ZM171.531 25.375H173.192V27.0357H171.531V25.375ZM171.531 27.0357H173.192V28.6964H171.531V27.0357ZM171.531 28.6964H173.192V30.3571H171.531V28.6964ZM171.531 30.3571H173.192V32.0179H171.531V30.3571ZM169.87 35.3393H171.531V37H169.87V35.3393ZM169.87 20.3929H171.531V22.0536H169.87V20.3929Z" fill="white"/>
</g>
<defs>
<filter id="filter0_d_455_3" x="0.5" y="0.5" width="216.815" height="64.1096" filterUnits="userSpaceOnUse" color-interpolation-filters="sRGB">
<feFlood flood-opacity="0" result="BackgroundImageFix"/>
<feColorMatrix in="SourceAlpha" type="matrix" values="0 0 0 0 0 0 0 0 0 0 0 0 0 0 0 0 0 0 127 0" result="hardAlpha"/>
<feOffset dx="1" dy="2"/>
<feGaussianBlur stdDeviation="3.25"/>
<feComposite in2="hardAlpha" operator="out"/>
<feColorMatrix type="matrix" values="0 0 0 0 0.194157 0 0 0 0 0.264539 0 0 0 0 0.504808 0 0 0 1 0"/>
<feBlend mode="multiply" in2="BackgroundImageFix" result="effect1_dropShadow_455_3"/>
<feBlend mode="normal" in="SourceGraphic" in2="effect1_dropShadow_455_3" result="shape"/>
</filter>
<filter id="filter1_f_455_3" x="173.076" y="5.46814" width="34.1804" height="26.7565" filterUnits="userSpaceOnUse" color-interpolation-filters="sRGB">
<feFlood flood-opacity="0" result="BackgroundImageFix"/>
<feBlend mode="normal" in="SourceGraphic" in2="BackgroundImageFix" result="shape"/>
<feGaussianBlur stdDeviation="2" result="effect1_foregroundBlur_455_3"/>
</filter>
<filter id="filter2_d_455_3" x="37" y="20.3928" width="145.495" height="17.6072" filterUnits="userSpaceOnUse" color-interpolation-filters="sRGB">
<feFlood flood-opacity="0" result="BackgroundImageFix"/>
<feColorMatrix in="SourceAlpha" type="matrix" values="0 0 0 0 0 0 0 0 0 0 0 0 0 0 0 0 0 0 127 0" result="hardAlpha"/>
<feOffset dx="1" dy="1"/>
<feComposite in2="hardAlpha" operator="out"/>
<feColorMatrix type="matrix" values="0 0 0 0 0.610577 0 0 0 0 0.358616 0 0 0 0 0.00587093 0 0 0 0.48 0"/>
<feBlend mode="plus-darker" in2="BackgroundImageFix" result="effect1_dropShadow_455_3"/>
<feBlend mode="normal" in="SourceGraphic" in2="effect1_dropShadow_455_3" result="shape"/>
</filter>
<linearGradient id="paint0_linear_455_3" x1="107.907" y1="6" x2="107.907" y2="51.1096" gradientUnits="userSpaceOnUse">
<stop stop-color="#F57C02"/>
<stop offset="1" stop-color="#B23803"/>
</linearGradient>
<linearGradient id="paint1_linear_455_3" x1="117.328" y1="6.42129" x2="117.328" y2="51.6709" gradientUnits="userSpaceOnUse">
<stop stop-color="#5DDE3D"/>
<stop offset="0.0001" stop-color="#FDEA5A"/>
<stop offset="1" stop-color="#FF7700"/>
</linearGradient>
<linearGradient id="paint2_linear_455_3" x1="116.549" y1="-10.7754" x2="116.549" y2="47.685" gradientUnits="userSpaceOnUse">
<stop stop-color="#FF7700"/>
<stop offset="0.9999" stop-color="#FDEA5A"/>
<stop offset="1" stop-color="#5DDE3D"/>
</linearGradient>
</defs>
</svg>
