<svg width="74" height="33" viewBox="0 0 74 33" fill="none" xmlns="http://www.w3.org/2000/svg">
<mask id="path-1-outside-1_223_37" maskUnits="userSpaceOnUse" x="0" y="1" width="73" height="32" fill="black">
<rect fill="white" y="1" width="73" height="32"/>
<path d="M1 18.9813C1 9.60279 8.60279 2 17.9813 2H55.0187C64.3972 2 72 9.60279 72 18.9813C72 24.69 67.3722 29.3177 61.6636 29.3177H11.3364C5.62779 29.3177 1 24.69 1 18.9813Z"/>
</mask>
<path d="M0.5 18.9813C0.5 9.32665 8.32665 1.5 17.9813 1.5H55.0187C64.6734 1.5 72.5 9.32665 72.5 18.9813H71.5C71.5 9.87893 64.1211 2.5 55.0187 2.5H17.9813C8.87893 2.5 1.5 9.87893 1.5 18.9813H0.5ZM72.5 21.4813C72.5 27.4661 67.6484 32.3177 61.6636 32.3177H11.3364C5.35164 32.3177 0.5 27.4661 0.5 21.4813L1.5 18.9813C1.5 23.0331 5.90393 26.3177 11.3364 26.3177H61.6636C67.0961 26.3177 71.5 23.0331 71.5 18.9813L72.5 21.4813ZM11.3364 32.3177C5.35164 32.3177 0.5 27.4661 0.5 21.4813V18.9813C0.5 9.32665 8.32665 1.5 17.9813 1.5V2.5C8.87893 2.5 1.5 9.87893 1.5 18.9813C1.5 23.0331 5.90393 26.3177 11.3364 26.3177V32.3177ZM55.0187 1.5C64.6734 1.5 72.5 9.32665 72.5 18.9813V21.4813C72.5 27.4661 67.6484 32.3177 61.6636 32.3177V26.3177C67.0961 26.3177 71.5 23.0331 71.5 18.9813C71.5 9.87893 64.1211 2.5 55.0187 2.5V1.5Z" fill="url(#paint0_linear_223_37)" mask="url(#path-1-outside-1_223_37)"/>
<path d="M1 18.9813C1 9.60279 8.60279 2 17.9813 2H55.0187C64.3972 2 72 9.60279 72 18.9813C72 24.69 67.3722 29.3177 61.6636 29.3177H11.3364C5.62779 29.3177 1 24.69 1 18.9813Z" fill="url(#paint1_linear_223_37)"/>
<mask id="path-4-inside-2_223_37" fill="white">
<path d="M1 18.9813C1 9.60279 8.60279 2 17.9813 2H55.0187C64.3972 2 72 9.60279 72 18.9813C72 24.69 67.3722 29.3177 61.6636 29.3177H11.3364C5.62779 29.3177 1 24.69 1 18.9813Z"/>
</mask>
<path d="M1 2H72H1ZM72 18.9813C72 27.4514 65.1336 34.3177 56.6636 34.3177H16.3364C7.86636 34.3177 1 27.4514 1 18.9813C1 21.9285 5.62778 24.3177 11.3364 24.3177H61.6636C67.3722 24.3177 72 21.9285 72 18.9813ZM1 29.3177V2V29.3177ZM72 2V29.3177V2Z" fill="#156901" fill-opacity="0.41" mask="url(#path-4-inside-2_223_37)"/>
<mask id="path-6-inside-3_223_37" fill="white">
<path d="M1 18.9813C1 9.60279 8.60279 2 17.9813 2H55.0187C64.3972 2 72 9.60279 72 18.9813C72 24.69 67.3722 29.3177 61.6636 29.3177H11.3364C5.62779 29.3177 1 24.69 1 18.9813Z"/>
</mask>
<path d="M1 18.9813C1 6.84136 10.8414 -3 22.9813 -3H50.0187C62.1586 -3 72 6.84136 72 18.9813C72 12.3642 64.3972 7 55.0187 7H17.9813C8.60279 7 1 12.3642 1 18.9813ZM72 29.3177H1H72ZM1 29.3177V2V29.3177ZM72 2V29.3177V2Z" fill="#EBFFE2" fill-opacity="0.41" mask="url(#path-6-inside-3_223_37)"/>
<mask id="path-8-inside-4_223_37" fill="white">
<path d="M3.51721 18.4868C3.51721 10.7943 9.7532 4.55835 17.4457 4.55835H55.4825C63.175 4.55835 69.411 10.7943 69.411 18.4868C69.411 23.1692 65.6152 26.965 60.9328 26.965H11.9954C7.31303 26.965 3.51721 23.1692 3.51721 18.4868Z"/>
</mask>
<path d="M3.51721 18.4868C3.51721 10.7943 9.7532 4.55835 17.4457 4.55835H55.4825C63.175 4.55835 69.411 10.7943 69.411 18.4868C69.411 23.1692 65.6152 26.965 60.9328 26.965H11.9954C7.31303 26.965 3.51721 23.1692 3.51721 18.4868Z" fill="url(#paint2_linear_223_37)"/>
<path d="M3.51721 4.55835H69.411H3.51721ZM69.411 18.4868C69.411 23.9976 64.9436 28.465 59.4328 28.465H13.4954C7.9846 28.465 3.51721 23.9976 3.51721 18.4868C3.51721 22.3408 7.31303 25.465 11.9954 25.465H60.9328C65.6152 25.465 69.411 22.3408 69.411 18.4868ZM3.51721 26.965V4.55835V26.965ZM69.411 4.55835V26.965V4.55835Z" fill="white" mask="url(#path-8-inside-4_223_37)"/>
<g filter="url(#filter0_f_223_37)">
<path d="M59 4.5C59.2348 4.67485 59.4647 4.84718 59.693 5.01857C61.7636 6.56136 63.4713 7.98585 64.9317 9.57109C66.4034 11.1492 67.767 12.981 69.2705 15.0696C69.4382 15.3041 69.6044 15.5314 69.776 15.7739C69.797 15.4775 69.8122 15.1936 69.8145 14.8993C69.8539 12.3013 69.0309 9.56709 67.1287 7.52822C65.2417 5.46651 62.4696 4.47378 59.8741 4.47808C59.5824 4.47531 59.2923 4.48329 59 4.5Z" fill="white" fill-opacity="0.76"/>
</g>
<g filter="url(#filter1_d_223_37)">
<path d="M30.1653 10.4286H31.0224V11.2857H30.1653V10.4286ZM31.0224 10.4286H31.8796V11.2857H31.0224V10.4286ZM31.8796 10.4286H32.7367V11.2857H31.8796V10.4286ZM32.7367 10.4286H33.5939V11.2857H32.7367V10.4286ZM33.5939 10.4286H34.451V11.2857H33.5939V10.4286ZM34.451 10.4286H35.3081V11.2857H34.451V10.4286ZM34.451 11.2857H35.3081V12.1429H34.451V11.2857ZM33.5939 11.2857H34.451V12.1429H33.5939V11.2857ZM32.7367 11.2857H33.5939V12.1429H32.7367V11.2857ZM31.8796 11.2857H32.7367V12.1429H31.8796V11.2857ZM31.0224 11.2857H31.8796V12.1429H31.0224V11.2857ZM30.1653 11.2857H31.0224V12.1429H30.1653V11.2857ZM35.3081 11.2857H36.1653V12.1429H35.3081V11.2857ZM34.451 12.1429H35.3081V13H34.451V12.1429ZM35.3081 12.1429H36.1653V13H35.3081V12.1429ZM35.3081 13H36.1653V13.8571H35.3081V13ZM35.3081 13.8571H36.1653V14.7143H35.3081V13.8571ZM34.451 13.8571H35.3081V14.7143H34.451V13.8571ZM34.451 13H35.3081V13.8571H34.451V13ZM34.451 14.7143H35.3081V15.5714H34.451V14.7143ZM34.451 15.5714H35.3081V16.4286H34.451V15.5714ZM33.5939 15.5714H34.451V16.4286H33.5939V15.5714ZM33.5939 14.7143H34.451V15.5714H33.5939V14.7143ZM32.7367 14.7143H33.5939V15.5714H32.7367V14.7143ZM32.7367 15.5714H33.5939V16.4286H32.7367V15.5714ZM31.8796 15.5714H32.7367V16.4286H31.8796V15.5714ZM31.8796 14.7143H32.7367V15.5714H31.8796V14.7143ZM31.0224 14.7143H31.8796V15.5714H31.0224V14.7143ZM30.1653 14.7143H31.0224V15.5714H30.1653V14.7143ZM30.1653 15.5714H31.0224V16.4286H30.1653V15.5714ZM31.0224 15.5714H31.8796V16.4286H31.0224V15.5714ZM30.1653 12.1429H31.0224V13H30.1653V12.1429ZM31.0224 12.1429H31.8796V13H31.0224V12.1429ZM31.0224 13H31.8796V13.8571H31.0224V13ZM31.0224 13.8571H31.8796V14.7143H31.0224V13.8571ZM30.1653 13H31.0224V13.8571H30.1653V13ZM30.1653 13.8571H31.0224V14.7143H30.1653V13.8571ZM30.1653 16.4286H31.0224V17.2857H30.1653V16.4286ZM31.0224 16.4286H31.8796V17.2857H31.0224V16.4286ZM31.0224 17.2857H31.8796V18.1429H31.0224V17.2857ZM31.0224 18.1429H31.8796V19H31.0224V18.1429ZM30.1653 18.1429H31.0224V19H30.1653V18.1429ZM30.1653 17.2857H31.0224V18.1429H30.1653V17.2857ZM35.3081 14.7143H36.1653V15.5714H35.3081V14.7143ZM37.0247 10.4286H37.8818V11.2857H37.0247V10.4286ZM37.8818 10.4286H38.7389V11.2857H37.8818V10.4286ZM37.8818 11.2857H38.7389V12.1429H37.8818V11.2857ZM37.8818 12.1429H38.7389V13H37.8818V12.1429ZM37.8818 13H38.7389V13.8571H37.8818V13ZM37.0247 13H37.8818V13.8571H37.0247V13ZM37.0247 12.1429H37.8818V13H37.0247V12.1429ZM37.0247 11.2857H37.8818V12.1429H37.0247V11.2857ZM37.0247 13.8571H37.8818V14.7143H37.0247V13.8571ZM37.0247 14.7143H37.8818V15.5714H37.0247V14.7143ZM37.0247 15.5714H37.8818V16.4286H37.0247V15.5714ZM37.8818 14.7143H38.7389V15.5714H37.8818V14.7143ZM37.8818 13.8571H38.7389V14.7143H37.8818V13.8571ZM37.8818 15.5714H38.7389V16.4286H37.8818V15.5714ZM37.8818 16.4286H38.7389V17.2857H37.8818V16.4286ZM37.0247 17.2857H37.8818V18.1429H37.0247V17.2857ZM37.0247 16.4286H37.8818V17.2857H37.0247V16.4286ZM37.0247 18.1429H37.8818V19H37.0247V18.1429ZM37.8818 18.1429H38.7389V19H37.8818V18.1429ZM37.8818 17.2857H38.7389V18.1429H37.8818V17.2857ZM38.7389 18.1429H39.5961V19H38.7389V18.1429ZM39.5961 18.1429H40.4532V19H39.5961V18.1429ZM40.4532 18.1429H41.3104V19H40.4532V18.1429ZM40.4532 17.2857H41.3104V18.1429H40.4532V17.2857ZM39.5961 17.2857H40.4532V18.1429H39.5961V17.2857ZM38.7389 17.2857H39.5961V18.1429H38.7389V17.2857ZM43.8796 11.2857H44.7367V12.1429H43.8796V11.2857ZM44.7367 11.2857H45.5939V12.1429H44.7367V11.2857ZM44.7367 10.4286H45.5939V11.2857H44.7367V10.4286ZM45.5939 11.2857H46.451V12.1429H45.5939V11.2857ZM45.5939 12.1429H46.451V13H45.5939V12.1429ZM46.451 12.1429H47.3081V13H46.451V12.1429ZM44.7367 12.1429H45.5939V13H44.7367V12.1429ZM43.8796 12.1429H44.7367V13H43.8796V12.1429ZM43.0224 12.1429H43.8796V13H43.0224V12.1429ZM43.0224 13H43.8796V13.8571H43.0224V13ZM42.1653 13H43.0224V13.8571H42.1653V13ZM43.8796 13H44.7367V13.8571H43.8796V13ZM43.0224 13.8571H43.8796V14.7143H43.0224V13.8571ZM43.0224 14.7143H43.8796V15.5714H43.0224V14.7143ZM43.0224 15.5714H43.8796V16.4286H43.0224V15.5714ZM43.8796 15.5714H44.7367V16.4286H43.8796V15.5714ZM44.7367 15.5714H45.5939V16.4286H44.7367V15.5714ZM45.5939 15.5714H46.451V16.4286H45.5939V15.5714ZM46.451 15.5714H47.3081V16.4286H46.451V15.5714ZM47.3081 15.5714H48.1653V16.4286H47.3081V15.5714ZM47.3081 14.7143H48.1653V15.5714H47.3081V14.7143ZM47.3081 13.8571H48.1653V14.7143H47.3081V13.8571ZM47.3081 13H48.1653V13.8571H47.3081V13ZM46.451 13H47.3081V13.8571H46.451V13ZM45.5939 13H46.451V13.8571H45.5939V13ZM46.451 13.8571H47.3081V14.7143H46.451V13.8571ZM46.451 14.7143H47.3081V15.5714H46.451V14.7143ZM46.451 16.4286H47.3081V17.2857H46.451V16.4286ZM47.3081 16.4286H48.1653V17.2857H47.3081V16.4286ZM47.3081 17.2857H48.1653V18.1429H47.3081V17.2857ZM47.3081 18.1429H48.1653V19H47.3081V18.1429ZM46.451 18.1429H47.3081V19H46.451V18.1429ZM46.451 17.2857H47.3081V18.1429H46.451V17.2857ZM45.5939 16.4286H46.451V17.2857H45.5939V16.4286ZM44.7367 16.4286H45.5939V17.2857H44.7367V16.4286ZM43.8796 16.4286H44.7367V17.2857H43.8796V16.4286ZM43.0224 16.4286H43.8796V17.2857H43.0224V16.4286ZM43.0224 17.2857H43.8796V18.1429H43.0224V17.2857ZM43.0224 18.1429H43.8796V19H43.0224V18.1429ZM42.1653 18.1429H43.0224V19H42.1653V18.1429ZM42.1653 17.2857H43.0224V18.1429H42.1653V17.2857ZM42.1653 16.4286H43.0224V17.2857H42.1653V16.4286ZM42.1653 15.5714H43.0224V16.4286H42.1653V15.5714ZM42.1653 14.7143H43.0224V15.5714H42.1653V14.7143ZM42.1653 13.8571H43.0224V14.7143H42.1653V13.8571ZM49.0247 10.4286H49.8818V11.2857H49.0247V10.4286ZM49.8818 10.4286H50.7389V11.2857H49.8818V10.4286ZM49.8818 11.2857H50.7389V12.1429H49.8818V11.2857ZM49.8818 12.1429H50.7389V13H49.8818V12.1429ZM49.0247 12.1429H49.8818V13H49.0247V12.1429ZM49.0247 11.2857H49.8818V12.1429H49.0247V11.2857ZM49.0247 13H49.8818V13.8571H49.0247V13ZM49.0247 13.8571H49.8818V14.7143H49.0247V13.8571ZM49.8818 13.8571H50.7389V14.7143H49.8818V13.8571ZM49.8818 13H50.7389V13.8571H49.8818V13ZM49.8818 14.7143H50.7389V15.5714H49.8818V14.7143ZM50.7389 14.7143H51.5961V15.5714H50.7389V14.7143ZM50.7389 13.8571H51.5961V14.7143H50.7389V13.8571ZM50.7389 15.5714H51.5961V16.4286H50.7389V15.5714ZM51.5961 15.5714H52.4532V16.4286H51.5961V15.5714ZM51.5961 14.7143H52.4532V15.5714H51.5961V14.7143ZM52.4532 14.7143H53.3104V15.5714H52.4532V14.7143ZM52.4532 15.5714H53.3104V16.4286H52.4532V15.5714ZM53.3104 15.5714H54.1675V16.4286H53.3104V15.5714ZM53.3104 14.7143H54.1675V15.5714H53.3104V14.7143ZM53.3104 13.8571H54.1675V14.7143H53.3104V13.8571ZM54.1675 13.8571H55.0247V14.7143H54.1675V13.8571ZM54.1675 14.7143H55.0247V15.5714H54.1675V14.7143ZM54.1675 13H55.0247V13.8571H54.1675V13ZM54.1675 12.1429H55.0247V13H54.1675V12.1429ZM54.1675 11.2857H55.0247V12.1429H54.1675V11.2857ZM54.1675 10.4286H55.0247V11.2857H54.1675V10.4286ZM55.0247 10.4286H55.8818V11.2857H55.0247V10.4286ZM55.0247 11.2857H55.8818V12.1429H55.0247V11.2857ZM55.0247 12.1429H55.8818V13H55.0247V12.1429ZM55.0247 13H55.8818V13.8571H55.0247V13ZM55.0247 13.8571H55.8818V14.7143H55.0247V13.8571ZM51.5961 16.4286H52.4532V17.2857H51.5961V16.4286ZM51.5961 17.2857H52.4532V18.1429H51.5961V17.2857ZM51.5961 18.1429H52.4532V19H51.5961V18.1429ZM52.4532 18.1429H53.3104V19H52.4532V18.1429ZM52.4532 17.2857H53.3104V18.1429H52.4532V17.2857ZM52.4532 16.4286H53.3104V17.2857H52.4532V16.4286Z" fill="white"/>
</g>
<g filter="url(#filter2_d_223_37)">
<path d="M24.2329 13.7621C25.499 14.5435 25.499 16.3846 24.2329 17.166L18.048 20.9832C16.7156 21.8055 14.9976 20.847 14.9976 19.2812L14.9976 11.647C14.9976 10.0812 16.7156 9.12265 18.048 9.94501L24.2329 13.7621Z" fill="white"/>
</g>
<defs>
<filter id="filter0_f_223_37" x="55" y="0.477539" width="18.8158" height="19.2963" filterUnits="userSpaceOnUse" color-interpolation-filters="sRGB">
<feFlood flood-opacity="0" result="BackgroundImageFix"/>
<feBlend mode="normal" in="SourceGraphic" in2="BackgroundImageFix" result="shape"/>
<feGaussianBlur stdDeviation="2" result="effect1_foregroundBlur_223_37"/>
</filter>
<filter id="filter1_d_223_37" x="30.1653" y="10.4286" width="26.7166" height="9.57141" filterUnits="userSpaceOnUse" color-interpolation-filters="sRGB">
<feFlood flood-opacity="0" result="BackgroundImageFix"/>
<feColorMatrix in="SourceAlpha" type="matrix" values="0 0 0 0 0 0 0 0 0 0 0 0 0 0 0 0 0 0 127 0" result="hardAlpha"/>
<feOffset dx="1" dy="1"/>
<feComposite in2="hardAlpha" operator="out"/>
<feColorMatrix type="matrix" values="0 0 0 0 0.108728 0 0 0 0 0.471154 0 0 0 0 0.0181213 0 0 0 0.48 0"/>
<feBlend mode="plus-darker" in2="BackgroundImageFix" result="effect1_dropShadow_223_37"/>
<feBlend mode="normal" in="SourceGraphic" in2="effect1_dropShadow_223_37" result="shape"/>
</filter>
<filter id="filter2_d_223_37" x="14.9977" y="9.6438" width="11.1848" height="12.6405" filterUnits="userSpaceOnUse" color-interpolation-filters="sRGB">
<feFlood flood-opacity="0" result="BackgroundImageFix"/>
<feColorMatrix in="SourceAlpha" type="matrix" values="0 0 0 0 0 0 0 0 0 0 0 0 0 0 0 0 0 0 127 0" result="hardAlpha"/>
<feOffset dx="1" dy="1"/>
<feComposite in2="hardAlpha" operator="out"/>
<feColorMatrix type="matrix" values="0 0 0 0 0.116734 0 0 0 0 0.514423 0 0 0 0 0.0173123 0 0 0 0.48 0"/>
<feBlend mode="normal" in2="BackgroundImageFix" result="effect1_dropShadow_223_37"/>
<feBlend mode="normal" in="SourceGraphic" in2="effect1_dropShadow_223_37" result="shape"/>
</filter>
<linearGradient id="paint0_linear_223_37" x1="36.5" y1="2" x2="36.5" y2="29.3177" gradientUnits="userSpaceOnUse">
<stop stop-color="#30C430"/>
<stop offset="1" stop-color="#137100"/>
</linearGradient>
<linearGradient id="paint1_linear_223_37" x1="39.8473" y1="2.25513" x2="39.8473" y2="29.6576" gradientUnits="userSpaceOnUse">
<stop offset="0.0001" stop-color="#B5F325"/>
<stop offset="1" stop-color="#22A801"/>
</linearGradient>
<linearGradient id="paint2_linear_223_37" x1="39.5707" y1="-8.15895" x2="39.5707" y2="27.2438" gradientUnits="userSpaceOnUse">
<stop stop-color="#109404"/>
<stop offset="0.9999" stop-color="#B6F247"/>
</linearGradient>
</defs>
</svg>
