<svg width="116" height="116" viewBox="0 0 116 116" fill="none" xmlns="http://www.w3.org/2000/svg">
<g filter="url(#filter0_d_148_164)">
<path d="M88.4847 6.79822C63.5122 -4.9135 45.532 0.105812 27.2188 9.80981C13.2341 19.5138 6.90776 30.5563 5.24292 40.2603C3.57808 49.9643 2.24622 70.7107 10.5704 83.7609C18.8946 96.8111 30.5484 101.83 38.2067 104.507C45.8649 107.184 57.5188 109.192 72.5023 107.184C81.4924 105.511 92.1474 103.169 106.132 83.7609C117.12 65.6914 113.457 18.5099 88.4847 6.79822Z" fill="url(#paint0_linear_148_164)"/>
</g>
<path d="M86.9247 6.98585C63.3395 -4.07522 46.3582 0.665241 29.0624 9.83013C15.8547 18.995 9.87976 29.424 8.30741 38.5889C6.73507 47.7538 5.47719 67.3477 13.3389 79.6729C21.2006 91.9981 32.2071 96.7385 39.4398 99.2668C46.6726 101.795 57.6791 103.691 71.8302 101.795C80.3208 100.215 90.3838 98.0026 103.592 79.6729C113.969 62.6072 110.51 18.0469 86.9247 6.98585Z" fill="url(#paint1_linear_148_164)"/>
<path d="M12.8431 63.3369C9.6448 44.6602 12.8431 35.4802 21.7983 24.7173C26.9155 17.6433 39.3888 9.52276 56.6595 8.25653C73.9302 6.9903 85.4439 12.0552 95.0387 22.1849C104.634 32.3146 104.634 47.5091 104.634 58.5885V58.5886C104.634 69.668 96.9577 81.3805 85.4439 88.9778C73.9301 96.5751 55.0603 95.942 44.1862 93.093C33.3121 90.244 16.0414 82.0136 12.8431 63.3369Z" fill="url(#paint2_linear_148_164)"/>
<path d="M12.7095 61.5539C9.51126 44.8092 12.7095 36.5788 21.6647 26.9294C26.782 20.5872 39.2552 13.3067 56.5259 12.1714C73.7966 11.0362 85.3104 15.5771 94.9052 24.6589C104.5 33.7407 104.5 47.3634 104.5 57.2967V57.2967C104.5 67.23 96.8242 77.7309 85.3104 84.5422C73.7966 91.3536 54.9268 90.786 44.0526 88.2317C33.1785 85.6774 15.9078 78.2985 12.7095 61.5539Z" fill="url(#paint3_linear_148_164)"/>
<path d="M43.0001 76.5001C39.6003 65.9023 36.73 52.2937 37.75 36.7503C37.9474 31.0982 39.3508 20.9513 51.2501 26.2502C63.1494 31.5491 70.0001 34.5003 78.137 38.645C85.5357 42.4137 90.1698 47.3753 85.7501 55.5003C81.3304 63.6253 67.5297 76.7175 61.7501 80.2501C55.9704 83.7827 46.3999 87.0979 43.0001 76.5001Z" fill="url(#paint4_linear_148_164)"/>
<path d="M45.42 72.813C42.2327 63.3022 39.3641 48.0848 40.3203 34.1356C40.5055 29.0632 41.5953 23.0396 52.7509 27.795C63.9065 32.5505 70.5998 35.4037 77.2932 39.208L77.4782 39.3132C84.0508 43.0481 87.4542 44.982 83.3491 52.2062C79.2056 59.4978 66.775 71.5449 61.3566 74.7152C55.9382 77.8855 48.6074 82.3238 45.42 72.813Z" fill="url(#paint5_linear_148_164)"/>
<path d="M42.4465 44.6665C42.4979 44.2321 42.6015 43.8064 42.7361 43.4006C42.8985 42.9093 42.9912 42.4013 43.0796 41.9047C43.1214 41.6705 43.1609 41.4368 43.2095 41.218C43.4528 40.1083 43.5097 38.958 43.6691 37.9276C43.758 37.3608 43.8557 36.8063 43.9703 36.2521C44.1316 35.5014 44.1803 34.6269 44.3049 34.0937C44.4146 33.6185 44.51 33.185 44.6366 32.7788C44.728 32.4795 44.8612 32.1449 44.9753 31.7125C45.0153 31.6052 45.1576 31.3773 45.373 31.1176C45.6095 30.8314 45.8488 30.6235 46.1449 30.4404C46.0917 30.4842 46.2311 30.431 46.4265 30.4348C46.6228 30.4324 46.8701 30.4545 47.1268 30.494C47.6777 30.5759 48.0945 30.7071 48.9109 30.8832C48.9007 30.8808 49.2104 31.0238 49.5331 31.2376C50.0829 31.5788 50.6052 31.8183 51.0889 32.0471C51.5316 32.2548 51.8671 32.4389 52.2195 32.6887C52.6862 33.0187 53.2337 33.2815 53.6884 33.4657C54.0668 33.6202 54.4957 33.8628 55.0421 34.1251C55.4661 34.3251 55.8235 34.4544 56.0747 34.5744C56.102 34.5872 56.1281 34.5998 56.1532 34.6123C57.0674 35.037 57.7754 35.2374 58.3826 35.491C58.9517 35.7312 59.5281 35.9938 60.1153 36.26C60.6507 36.5032 61.2372 36.7857 61.8462 37.0393C62.4201 37.2712 62.7224 37.4697 63.5365 37.9103C64.0146 38.1386 64.4199 38.2977 64.786 38.469C65.3939 38.7516 65.8503 38.8767 66.2128 39.0374C66.973 39.3784 67.6082 39.4541 68.0702 39.5855C68.6478 39.7364 69.1311 39.954 69.8936 40.2163C70.338 40.3434 70.892 40.6055 71.4648 40.8194C72.806 41.3001 73.9751 41.5984 75.2168 42.0168C75.8539 42.2244 76.4686 42.4361 77.0325 42.722C77.5588 43.0044 78.1373 43.1954 78.6238 43.383C78.9189 43.4971 79.2147 43.6777 79.5216 43.8671C79.5948 43.9123 79.6684 43.9577 79.7429 44.0031C80.28 44.2944 80.6184 44.7575 80.9197 45.3341C80.9734 45.4364 80.9983 45.5533 81.0262 45.6818C81.0493 45.7769 81.0879 45.8644 81.1273 45.9502C81.1068 45.8578 81.088 45.7651 81.0856 45.6734C81.0851 45.5508 81.0857 45.4127 81.0491 45.2817C80.8893 44.6868 80.58 44.0098 80.0549 43.5867C79.992 43.5292 79.9293 43.4712 79.8659 43.4128C79.6007 43.1696 79.3226 42.9117 78.9781 42.6964C78.4681 42.3837 78.0151 42.1396 77.6015 41.8161C77.011 41.3759 76.3743 41.0355 75.7545 40.7199C74.6062 40.1214 73.3165 39.5758 72.2701 39.0403C71.7722 38.782 71.3022 38.4723 70.6493 38.1902C70.1883 37.9726 69.4978 37.5875 68.8203 37.3371C68.1704 37.0969 67.6376 36.9555 67.342 36.7727C66.8012 36.4822 66.2948 36.2882 66.002 36.1148C65.5596 35.868 65.1296 35.6625 64.798 35.4754C64.4614 35.261 63.6557 34.7213 63.0053 34.4338C62.478 34.1843 61.9558 33.9062 61.3696 33.6154C60.785 33.3266 60.1892 33.0358 59.5688 32.7601C58.7544 32.4102 57.9769 32.1586 57.4911 31.9272C57.4438 31.9036 57.3971 31.8811 57.3512 31.8595C56.9235 31.6604 56.5736 31.536 56.3191 31.4158C55.9036 31.2245 55.4023 30.945 54.7914 30.706C54.4109 30.5588 54.1406 30.435 53.865 30.2558C53.3587 29.9169 52.7651 29.6246 52.2555 29.4144C51.7721 29.2121 51.3227 29.0252 50.9606 28.8264C50.5655 28.6225 50.1423 28.3184 49.3005 28.1838C48.8927 28.1242 48.091 27.9585 47.3973 27.9147C46.664 27.9085 45.8957 27.7266 44.736 28.4571C44.2578 28.8185 43.8248 29.2947 43.5113 29.7782C43.2738 30.1529 42.9812 30.6015 42.8556 31.2653C42.8187 31.5445 42.726 31.9024 42.6518 32.3111C42.5583 32.827 42.5144 33.3315 42.47 33.7912C42.3985 34.7255 42.4809 35.3391 42.4341 36.0562C42.4011 36.6489 42.3896 37.2455 42.393 37.832C42.4054 38.9971 42.5424 40.0555 42.5102 41.1328C42.5025 41.3835 42.508 41.6217 42.5115 41.8591C42.5192 42.36 42.5269 42.8535 42.4701 43.3403C42.4176 43.7855 42.405 44.2291 42.4465 44.6665Z" fill="white"/>
<g filter="url(#filter1_f_148_164)">
<path d="M44.3799 66.9324C44.5668 67.7179 44.7713 68.5026 44.9444 69.284C44.9598 69.3556 44.9748 69.427 44.9886 69.498C45.1758 70.3766 45.2963 71.1955 45.6533 72.1396C45.6703 72.1774 45.6822 72.2178 45.6767 72.215C45.6747 72.2134 45.6652 72.19 45.6689 72.1436C45.6758 72.0963 45.6801 72.0774 45.6471 72.186C45.5962 72.4378 45.6849 72.5621 45.7122 72.6365C45.7508 72.7171 45.7855 72.7752 45.821 72.8333C46.0094 73.159 46.1165 73.6169 46.3335 74.1161C46.5816 74.6742 46.9351 75.1487 47.1652 75.5618C47.4677 76.0706 47.7867 76.4398 48.0745 76.8257C48.5018 77.377 49.1199 77.6231 49.3186 77.8148C49.778 78.1778 50.2496 78.2904 50.6078 78.4012C51.5718 78.6262 52.2658 78.5459 53.1571 78.327C53.6065 78.1924 54.0842 78.0872 54.6158 77.9271C55.1745 77.7495 55.6052 77.5087 55.9268 77.3979C56.4631 77.207 56.9303 76.8865 57.2355 76.7117C57.6074 76.5004 58.0243 76.3115 58.5149 76.0263C58.9184 75.7899 59.5084 75.5462 60.0886 75.2099C60.6539 74.8501 60.9976 74.5892 61.4385 74.2812C61.7218 74.0805 62.0048 73.8794 62.2871 73.6788C62.898 73.2599 63.5778 72.6105 63.9258 72.3141C64.5921 71.8034 64.9748 71.2946 65.3235 71.018C65.8947 70.5554 66.1572 70.1793 66.519 69.8779C66.9155 69.5285 67.4579 69.1563 67.9642 68.7002C68.6388 68.0713 69.0103 67.5324 69.5244 67.0295C70.1291 66.4181 70.7042 65.7914 71.27 65.1652C71.5929 64.8097 72.1272 64.4108 72.5949 63.9528C73.0451 63.4946 73.617 63.1355 74.2042 62.5904C74.9361 61.875 75.5939 61.1122 76.2405 60.3525C76.5775 59.9565 76.8761 59.5609 77.2134 59.1936C77.3047 59.0931 77.3975 58.9945 77.4928 58.8965L77.5079 58.8813C77.9156 58.3896 78.3935 57.8856 78.8032 57.3604C78.3057 57.8174 77.7896 58.2082 77.2673 58.6734L77.2824 58.6581C77.1708 58.7428 77.061 58.8288 76.9524 58.9175C76.5511 59.2414 76.1818 59.6064 75.8129 59.9343C75.068 60.5976 74.33 61.2577 73.5598 61.8499C73.0656 62.2165 72.3906 62.5515 71.7883 63.042C71.3394 63.4031 70.8394 63.6841 70.2776 64.1833C69.6598 64.7533 69.0469 65.3193 68.4257 65.8611C67.8341 66.3639 67.2787 67.0077 66.8307 67.3647C66.3949 67.7161 65.8923 68.0185 65.3337 68.4596C64.8573 68.831 64.4457 69.3034 64.165 69.4959C63.5288 69.9913 63.126 70.4806 62.7842 70.7141C62.0363 71.3144 61.6981 71.6628 61.1366 72.0474C60.851 72.2473 60.5658 72.4485 60.2825 72.6492C59.8762 72.9356 59.3857 73.2911 59.0827 73.4908C58.634 73.7618 58.1154 73.9761 57.4931 74.3518C57.1611 74.5578 56.7113 74.7818 56.258 75.0572C55.8124 75.3397 55.5512 75.5296 55.2591 75.6485C54.7271 75.871 54.3605 76.0972 54.0481 76.2101C53.6216 76.3644 53.1206 76.5061 52.6134 76.6919C52.1598 76.8503 51.4084 76.9521 50.9957 76.8717C50.6352 76.7976 50.3609 76.724 50.2205 76.6306C49.6447 76.2545 49.3088 76.1659 49.1186 75.9539C48.7805 75.5837 48.4268 75.2302 48.193 74.9143C47.8389 74.4199 47.4987 74.0551 47.2586 73.6461C47.044 73.2913 46.8833 72.8127 46.5329 72.3408C46.503 72.304 46.4758 72.2677 46.4605 72.2458C46.4379 72.2218 46.4727 72.2318 46.4487 72.3704C46.4288 72.4233 46.4604 72.3527 46.4737 72.2484C46.4849 72.1444 46.4668 72.0646 46.4501 72.0078C46.4142 71.8945 46.375 71.8316 46.3376 71.7684C45.9804 71.1035 45.6838 70.1988 45.3868 69.3884C45.3614 69.3167 45.3352 69.2461 45.3086 69.1759C45.0162 68.4147 44.6938 67.6776 44.3799 66.9324Z" fill="#71CE2C"/>
</g>
<g filter="url(#filter2_f_148_164)">
<path d="M68.4607 10.568C69.0273 10.6343 69.5896 10.7311 70.1485 10.8331C71.316 11.0507 72.4785 11.3002 73.5914 11.6228C75.1492 12.0757 76.6671 12.585 78.0944 13.24C79.2386 13.7616 80.376 14.3823 81.6305 14.9111C82.3823 15.2291 83.1098 15.7782 83.9013 16.3733C84.3332 16.6964 84.7876 17.0338 85.2945 17.344C86.5692 18.118 87.792 19.0823 89.1492 19.9821C90.2159 20.6718 91.2464 21.6239 92.4886 22.384L92.3606 22.2628C93.4298 23.4315 94.5696 24.4745 95.5277 25.6715L95.5368 25.6849C95.5873 25.7409 95.6396 25.7945 95.6924 25.8456C96.1243 26.254 96.5837 26.5829 97.0389 26.9321C96.6787 26.49 96.2941 26.0541 95.9831 25.6009C95.9458 25.5452 95.9102 25.4888 95.8777 25.4326L95.8868 25.4459C95.1665 24.0196 94.1968 22.7558 93.3364 21.4881L93.2084 21.3669C92.2061 20.5408 91.3189 19.5005 90.1561 18.5846C88.9575 17.6327 87.7513 16.5638 86.3451 15.6633C85.9389 15.4025 85.5299 15.0945 85.1002 14.7725C84.3116 14.1851 83.4409 13.5244 82.3461 13.1086C81.1821 12.675 79.9897 12.1269 78.7159 11.6845C77.105 11.1231 75.446 10.7991 73.8009 10.5985C72.5832 10.4518 71.3796 10.4232 70.1775 10.4542C69.6035 10.4714 69.0281 10.5009 68.4607 10.568Z" fill="white"/>
</g>
<defs>
<filter id="filter0_d_148_164" x="0" y="0" width="116" height="116" filterUnits="userSpaceOnUse" color-interpolation-filters="sRGB">
<feFlood flood-opacity="0" result="BackgroundImageFix"/>
<feColorMatrix in="SourceAlpha" type="matrix" values="0 0 0 0 0 0 0 0 0 0 0 0 0 0 0 0 0 0 127 0" result="hardAlpha"/>
<feOffset dy="4"/>
<feGaussianBlur stdDeviation="2"/>
<feComposite in2="hardAlpha" operator="out"/>
<feColorMatrix type="matrix" values="0 0 0 0 0.465699 0 0 0 0 0.575937 0 0 0 0 0.701923 0 0 0 1 0"/>
<feBlend mode="normal" in2="BackgroundImageFix" result="effect1_dropShadow_148_164"/>
<feBlend mode="normal" in="SourceGraphic" in2="effect1_dropShadow_148_164" result="shape"/>
</filter>
<filter id="filter1_f_148_164" x="41.3799" y="54.3605" width="40.4233" height="27.175" filterUnits="userSpaceOnUse" color-interpolation-filters="sRGB">
<feFlood flood-opacity="0" result="BackgroundImageFix"/>
<feBlend mode="normal" in="SourceGraphic" in2="BackgroundImageFix" result="shape"/>
<feGaussianBlur stdDeviation="1.5" result="effect1_foregroundBlur_148_164"/>
</filter>
<filter id="filter2_f_148_164" x="66.4607" y="8.44299" width="32.5782" height="20.4891" filterUnits="userSpaceOnUse" color-interpolation-filters="sRGB">
<feFlood flood-opacity="0" result="BackgroundImageFix"/>
<feBlend mode="normal" in="SourceGraphic" in2="BackgroundImageFix" result="shape"/>
<feGaussianBlur stdDeviation="1" result="effect1_foregroundBlur_148_164"/>
</filter>
<linearGradient id="paint0_linear_148_164" x1="58" y1="0" x2="58" y2="108" gradientUnits="userSpaceOnUse">
<stop stop-color="#54C054"/>
<stop offset="1" stop-color="#137101"/>
</linearGradient>
<linearGradient id="paint1_linear_148_164" x1="58.1335" y1="0.565308" x2="58.1335" y2="102.565" gradientUnits="userSpaceOnUse">
<stop stop-color="#90DD18"/>
<stop offset="1" stop-color="#2F8F13"/>
</linearGradient>
<linearGradient id="paint2_linear_148_164" x1="58.1335" y1="8.06531" x2="58.1335" y2="95.0653" gradientUnits="userSpaceOnUse">
<stop stop-color="#F4FFE3"/>
<stop offset="1" stop-color="#3AAA04"/>
</linearGradient>
<linearGradient id="paint3_linear_148_164" x1="58" y1="12" x2="58" y2="90" gradientUnits="userSpaceOnUse">
<stop stop-color="#AAEC41"/>
<stop offset="1" stop-color="#4FB81D"/>
</linearGradient>
<linearGradient id="paint4_linear_148_164" x1="62.5001" y1="24.0001" x2="62.5001" y2="82.5001" gradientUnits="userSpaceOnUse">
<stop stop-color="#4DAD16"/>
<stop offset="1" stop-color="#279305"/>
</linearGradient>
<linearGradient id="paint5_linear_148_164" x1="62.6335" y1="26.0653" x2="62.6335" y2="78.5653" gradientUnits="userSpaceOnUse">
<stop stop-color="white"/>
<stop offset="1" stop-color="#CBFFA3"/>
</linearGradient>
</defs>
</svg>
